<?xml version="1.0" standalone="no"?>
<!DOCTYPE svg PUBLIC "-//W3C//DTD SVG 20010904//EN"
 "http://www.w3.org/TR/2001/REC-SVG-20010904/DTD/svg10.dtd">
<svg version="1.0" xmlns="http://www.w3.org/2000/svg"
 width="776.000000pt" height="776.000000pt" viewBox="0 0 776.000000 776.000000"
 preserveAspectRatio="xMidYMid meet">
<metadata>
Created by potrace 1.14, written by Peter Selinger 2001-2017
</metadata>
<g transform="translate(0.000000,776.000000) scale(0.100000,-0.100000)"
fill="#000000" stroke="none">
<path d="M586 7665 c21 -27 212 -261 424 -520 1189 -1449 2039 -2493 2084
-2560 63 -92 5 -182 -152 -234 -143 -48 -249 -32 -331 50 -44 44 -214 293
-446 654 -462 717 -588 911 -597 920 -20 20 48 -106 379 -699 388 -694 493
-893 493 -934 0 -32 -22 -67 -94 -156 -93 -115 -131 -221 -171 -481 -63 -403
-133 -544 -501 -1010 -235 -296 -283 -402 -292 -641 -9 -270 47 -451 229 -739
98 -154 159 -271 159 -303 0 -12 7 -25 16 -29 8 -3 68 7 132 22 249 58 477
149 632 253 101 68 213 185 247 259 25 52 27 69 28 173 0 110 -1 118 -33 182
-39 80 -103 141 -272 263 -207 149 -291 251 -326 401 -31 134 -12 220 113 494
133 293 153 362 178 615 20 202 36 262 86 319 48 54 87 70 236 95 65 12 143
28 173 37 141 41 289 154 344 261 25 51 45 149 46 225 0 35 -18 58 -282 350
-790 875 -2372 2611 -2477 2718 -59 61 -61 62 -25 15z m1220 -5544 c111 -50
120 -222 16 -283 -40 -24 -83 -23 -116 3 -30 23 -34 68 -11 109 23 40 18 66
-15 90 -34 24 -38 50 -12 72 37 33 80 35 138 9z"/>
<path d="M3103 6013 c-7 -5 25 -15 85 -25 287 -49 530 -179 762 -408 123 -122
189 -199 405 -480 347 -451 496 -585 770 -694 197 -77 412 -114 820 -141 263
-17 441 -43 527 -75 119 -44 230 -135 310 -253 22 -32 41 -57 43 -55 9 8 -28
174 -56 254 -57 163 -185 383 -309 529 -28 33 -54 61 -58 63 -4 1 -17 -40 -30
-90 -41 -170 -135 -326 -207 -344 -64 -16 -135 28 -152 94 -6 26 -5 31 44 142
27 62 28 71 28 225 0 98 -5 183 -13 218 -14 58 -15 59 -89 108 -242 157 -565
265 -903 300 -138 14 -434 6 -570 -15 -52 -9 -104 -16 -116 -16 -13 0 -46 29
-95 86 -157 183 -397 375 -573 458 -99 47 -211 83 -314 101 -104 18 -293 29
-309 18z"/>
<path d="M6207 5823 c-39 -88 -56 -163 -68 -312 -6 -75 -16 -144 -21 -154 -12
-23 -19 -21 -192 43 -127 46 -316 103 -316 94 0 -2 51 -28 114 -58 260 -122
393 -220 439 -323 36 -81 47 -162 47 -360 0 -140 -3 -182 -19 -232 -10 -34
-17 -61 -14 -61 9 0 63 127 78 185 9 33 21 134 26 225 9 135 14 168 29 183 16
18 20 18 48 3 42 -22 148 -103 267 -205 55 -47 93 -77 85 -66 -35 48 -136 161
-274 309 -175 188 -198 227 -222 386 -18 120 -14 267 10 345 8 27 14 50 12 52
-2 2 -15 -23 -29 -54z"/>
<path d="M3065 5745 c-20 -240 72 -577 220 -807 120 -184 328 -345 492 -379
73 -15 126 -4 131 26 1 11 -20 56 -48 100 -110 171 -129 222 -194 500 -24 105
-57 225 -73 266 -73 188 -182 284 -401 353 -124 39 -119 41 -127 -59z"/>
<path d="M4863 4188 c6 -154 26 -246 73 -341 136 -271 428 -468 1089 -738 589
-240 826 -384 949 -578 64 -101 90 -173 102 -279 4 -34 10 -65 15 -68 11 -7
82 144 112 241 55 176 62 489 15 655 -56 194 -136 336 -263 469 -150 158 -342
275 -573 351 -154 50 -256 72 -627 131 -523 83 -660 126 -826 255 -30 24 -59
44 -64 44 -4 0 -5 -64 -2 -142z"/>
<path d="M3498 4001 c-75 -24 -149 -95 -194 -183 -22 -43 -27 -67 -28 -128 -1
-95 16 -143 61 -178 33 -25 45 -27 140 -30 176 -6 334 44 407 130 40 46 50 82
41 137 -15 90 -126 216 -212 241 -52 15 -182 22 -215 11z m189 -52 c18 -6 44
-24 58 -40 46 -55 26 -116 -49 -150 -124 -56 -286 23 -246 121 31 74 128 102
237 69z"/>
<path d="M5320 3227 c0 -4 12 -46 27 -94 23 -78 26 -105 27 -243 1 -127 -2
-165 -18 -210 -69 -205 -219 -357 -435 -445 -87 -36 -141 -48 -423 -100 -363
-65 -489 -100 -638 -175 -85 -42 -182 -101 -177 -107 3 -2 50 9 104 26 123 36
306 67 478 81 457 35 507 41 617 69 185 47 289 102 406 215 78 75 134 155 175
249 29 68 31 80 35 229 4 177 -4 221 -65 342 -37 74 -113 183 -113 163z"/>
<path d="M5671 3033 c-35 -90 -43 -286 -16 -419 21 -102 74 -239 131 -336 24
-42 133 -211 241 -375 222 -334 308 -486 352 -618 42 -126 54 -211 48 -324 -6
-113 -24 -185 -77 -303 -23 -53 -33 -88 -26 -88 19 0 157 82 222 132 129 99
259 257 332 404 134 268 168 623 85 889 -58 184 -121 285 -268 431 -129 128
-268 221 -645 432 -157 87 -301 169 -320 180 -44 28 -45 28 -59 -5z"/>
<path d="M3775 1629 c-212 -27 -499 -136 -730 -277 -156 -95 -365 -256 -365
-281 0 -5 51 -16 113 -26 148 -23 283 -58 360 -94 100 -46 191 -118 375 -295
126 -121 189 -174 233 -196 230 -117 475 -53 566 147 21 46 26 73 27 142 1
112 -19 165 -85 225 -59 53 -121 76 -205 76 -91 0 -141 -25 -188 -94 -52 -76
-25 -183 54 -213 26 -9 30 -10 16 0 -57 37 -69 53 -73 103 -6 58 20 105 76
138 46 27 133 25 192 -4 92 -46 123 -94 123 -190 0 -194 -187 -301 -375 -213
-82 38 -128 78 -163 143 -81 148 -17 334 141 412 65 32 72 33 188 33 105 0
127 -3 180 -26 136 -57 259 -165 339 -299 26 -43 85 -164 132 -267 103 -227
143 -298 223 -385 122 -132 241 -187 406 -188 115 0 188 16 278 61 67 34 181
108 175 115 -2 2 -44 -10 -93 -26 -251 -80 -461 -54 -571 72 -83 95 -115 184
-159 450 -19 117 -46 256 -60 308 -60 224 -174 388 -345 499 -66 42 -202 102
-285 124 -126 34 -344 45 -500 26z"/>
</g>
</svg>
