<svg width="59" height="47" viewBox="0 0 59 47" fill="none" xmlns="http://www.w3.org/2000/svg">
<path d="M0 35.1719C0 37.1406 0.478516 38.959 1.43555 40.627C2.40625 42.2949 3.71875 43.6143 5.37305 44.585C7.02734 45.542 8.83203 46.0205 10.7871 46.0205H34.4736C36.4287 46.0205 38.2402 45.542 39.9082 44.585C41.5762 43.6143 42.8955 42.2949 43.8662 40.627C44.8369 38.959 45.3223 37.1406 45.3223 35.1719C45.3223 33.7227 45.0146 32.2666 44.3994 30.8037C46.0674 28.7666 46.9014 26.3535 46.9014 23.5645C46.9014 22.0059 46.6006 20.5225 45.999 19.1143C45.3975 17.6924 44.584 16.4688 43.5586 15.4434C42.5332 14.418 41.3096 13.6045 39.8877 13.0029C38.4795 12.4014 36.9961 12.1006 35.4375 12.1006C32.1973 12.1006 29.3672 13.3721 26.9473 15.915C25.252 14.958 23.2832 14.4795 21.041 14.4795C17.9648 14.4795 15.2441 15.4365 12.8789 17.3506C10.5137 19.251 8.99609 21.6914 8.32617 24.6719C5.87891 25.2324 3.87598 26.4902 2.31738 28.4453C0.772461 30.4004 0 32.6426 0 35.1719ZM3.73242 35.1719C3.73242 33.3398 4.34082 31.7607 5.55762 30.4346C6.78809 29.1084 8.32617 28.3359 10.1719 28.1172L11.2588 28.0557C11.5322 28.0557 11.6689 27.9258 11.6689 27.666L11.8125 26.4766C12.1133 24.1113 13.1387 22.1357 14.8887 20.5498C16.6387 18.9502 18.6895 18.1504 21.041 18.1504C23.4473 18.1504 25.5391 18.9502 27.3164 20.5498C29.1074 22.1494 30.1123 24.125 30.3311 26.4766L30.4951 27.748C30.5498 27.9941 30.7002 28.1172 30.9463 28.1172H34.4736C36.4014 28.1172 38.0625 28.8145 39.457 30.209C40.8516 31.6035 41.5488 33.2578 41.5488 35.1719C41.5488 37.1543 40.8516 38.8496 39.457 40.2578C38.0762 41.6523 36.415 42.3496 34.4736 42.3496H10.7871C8.87305 42.3496 7.21875 41.6455 5.82422 40.2373C4.42969 38.8154 3.73242 37.127 3.73242 35.1719ZM18.3955 8.32715C18.3955 8.86035 18.5732 9.31836 18.9287 9.70117L20.3643 11.0957C20.9111 11.5059 21.376 11.6904 21.7588 11.6494C22.21 11.6494 22.6133 11.4648 22.9688 11.0957C23.3242 10.7129 23.502 10.2549 23.502 9.72168C23.502 9.18848 23.3105 8.75781 22.9277 8.42969L21.6357 6.99414C21.2393 6.63867 20.7949 6.46094 20.3027 6.46094C19.7695 6.46094 19.3184 6.64551 18.9492 7.01465C18.5801 7.37012 18.3955 7.80762 18.3955 8.32715ZM30.085 18.0068C31.6025 16.5439 33.3867 15.8125 35.4375 15.8125C37.5977 15.8125 39.4297 16.5645 40.9336 18.0684C42.4512 19.5723 43.21 21.4043 43.21 23.5645C43.21 24.9316 42.8408 26.2715 42.1025 27.584C39.9834 25.4922 37.4404 24.4463 34.4736 24.4463H33.7764C33.2295 22.0674 31.999 19.9209 30.085 18.0068ZM33.6328 6.46094C33.6328 7.02148 33.8037 7.47266 34.1455 7.81445C34.4873 8.15625 34.918 8.32715 35.4375 8.32715C35.998 8.32715 36.4492 8.15625 36.791 7.81445C37.1328 7.47266 37.3037 7.02148 37.3037 6.46094V1.99023C37.3037 1.4707 37.126 1.04004 36.7705 0.698242C36.4287 0.356445 35.9844 0.185547 35.4375 0.185547C34.918 0.185547 34.4873 0.356445 34.1455 0.698242C33.8037 1.04004 33.6328 1.4707 33.6328 1.99023V6.46094ZM45.7119 11.4854C45.7119 12.0459 45.876 12.4971 46.2041 12.8389C46.6689 13.1943 47.1201 13.3721 47.5576 13.3721C47.9541 13.3721 48.3848 13.1943 48.8496 12.8389L51.9873 9.70117C52.3428 9.30469 52.5205 8.83984 52.5205 8.30664C52.5205 7.78711 52.3428 7.34961 51.9873 6.99414C51.6318 6.63867 51.2012 6.46094 50.6953 6.46094C50.1758 6.46094 49.752 6.63867 49.4238 6.99414L46.2041 10.1318C45.876 10.5283 45.7119 10.9795 45.7119 11.4854ZM47.9883 36.0537C47.6328 36.4092 47.4551 36.8467 47.4551 37.3662C47.4551 37.8857 47.6396 38.3438 48.0088 38.7402L49.4238 40.1143C49.752 40.4697 50.1758 40.6475 50.6953 40.6475C51.2148 40.6475 51.6455 40.4697 51.9873 40.1143C52.3428 39.7451 52.5205 39.2871 52.5205 38.7402C52.5205 38.248 52.3428 37.8242 51.9873 37.4688L50.5723 36.0537C50.2168 35.6982 49.7998 35.5205 49.3213 35.5205C48.8018 35.5205 48.3574 35.6982 47.9883 36.0537ZM51.208 22.252C50.8389 22.6211 50.6543 23.0586 50.6543 23.5645C50.6543 24.0703 50.8457 24.4941 51.2285 24.8359C51.584 25.1914 52.0283 25.3691 52.5615 25.3691H57.0322C57.5381 25.3691 57.9551 25.1982 58.2832 24.8564C58.625 24.5146 58.7959 24.084 58.7959 23.5645C58.7959 23.0449 58.625 22.6074 58.2832 22.252C57.9551 21.8828 57.5381 21.6982 57.0322 21.6982H52.5615C52.042 21.6982 51.5908 21.8828 51.208 22.252Z" fill="white" fill-opacity="0.7"/>
</svg>
