<svg width="47" height="48" viewBox="0 0 47 48" fill="none" xmlns="http://www.w3.org/2000/svg">
<path d="M0 24.1885C0 23.6553 0.18457 23.2041 0.553711 22.835C0.936523 22.4795 1.37402 22.3018 1.86621 22.3018H6.33691C6.84277 22.3018 7.25977 22.4863 7.58789 22.8555C7.92969 23.2246 8.10059 23.6689 8.10059 24.1885C8.10059 24.708 7.92969 25.1523 7.58789 25.5215C7.25977 25.877 6.84277 26.0547 6.33691 26.0547H1.86621C1.36035 26.0547 0.922852 25.8701 0.553711 25.501C0.18457 25.1318 0 24.6943 0 24.1885ZM6.25488 39.3438C6.25488 38.8379 6.42578 38.3936 6.76758 38.0107L9.9873 34.8936C10.3154 34.5518 10.7461 34.3809 11.2793 34.3809C11.7988 34.3809 12.2295 34.5449 12.5713 34.873C12.9268 35.2012 13.1045 35.6182 13.1045 36.124C13.1045 36.6572 12.9268 37.1221 12.5713 37.5186L9.4541 40.6357C8.56543 41.333 7.66992 41.333 6.76758 40.6357C6.42578 40.2666 6.25488 39.8359 6.25488 39.3438ZM6.25488 9.05371C6.25488 8.54785 6.42578 8.10352 6.76758 7.7207C7.19141 7.36523 7.65625 7.1875 8.16211 7.1875C8.64062 7.1875 9.07129 7.36523 9.4541 7.7207L12.5713 10.9404C12.9268 11.2686 13.1045 11.6992 13.1045 12.2324C13.1045 12.752 12.9268 13.1895 12.5713 13.5449C12.2295 13.8867 11.7988 14.0576 11.2793 14.0576C10.7461 14.0576 10.3154 13.8799 9.9873 13.5244L6.76758 10.4072C6.42578 10.0381 6.25488 9.58691 6.25488 9.05371ZM11.833 24.1885C11.833 22.1514 12.3457 20.2578 13.3711 18.5078C14.3965 16.7441 15.7842 15.3496 17.5342 14.3242C19.2979 13.2988 21.1982 12.7861 23.2354 12.7861C24.7666 12.7861 26.2363 13.0938 27.6445 13.709C29.0527 14.3105 30.2627 15.124 31.2744 16.1494C32.2998 17.1611 33.1133 18.3711 33.7148 19.7793C34.3164 21.1875 34.6172 22.6572 34.6172 24.1885C34.6172 26.2393 34.1045 28.1396 33.0791 29.8896C32.0674 31.6396 30.6865 33.0273 28.9365 34.0527C27.1865 35.0645 25.2861 35.5703 23.2354 35.5703C21.1846 35.5703 19.2842 35.0645 17.5342 34.0527C15.7842 33.0273 14.3965 31.6396 13.3711 29.8896C12.3457 28.1396 11.833 26.2393 11.833 24.1885ZM15.5449 24.1885C15.5449 26.3213 16.29 28.1465 17.7803 29.6641C19.2842 31.168 21.1025 31.9199 23.2354 31.9199C25.3682 31.9199 27.1865 31.168 28.6904 29.6641C30.208 28.1465 30.9668 26.3213 30.9668 24.1885C30.9668 22.083 30.208 20.2852 28.6904 18.7949C27.1865 17.3047 25.3682 16.5596 23.2354 16.5596C21.1162 16.5596 19.3047 17.3047 17.8008 18.7949C16.2969 20.2852 15.5449 22.083 15.5449 24.1885ZM21.3691 41.1895C21.3691 40.6699 21.5469 40.2324 21.9023 39.877C22.2715 39.5215 22.7158 39.3438 23.2354 39.3438C23.7686 39.3438 24.2129 39.5215 24.5684 39.877C24.9238 40.2324 25.1016 40.6699 25.1016 41.1895V45.5371C25.1016 46.0703 24.917 46.5215 24.5479 46.8906C24.1924 47.2598 23.7549 47.4443 23.2354 47.4443C22.7158 47.4443 22.2715 47.2598 21.9023 46.8906C21.5469 46.5215 21.3691 46.0703 21.3691 45.5371V41.1895ZM21.3691 7.29004V2.81934C21.3691 2.31348 21.5537 1.87598 21.9229 1.50684C22.292 1.1377 22.7295 0.953125 23.2354 0.953125C23.7412 0.953125 24.1787 1.1377 24.5479 1.50684C24.917 1.87598 25.1016 2.31348 25.1016 2.81934V7.29004C25.1016 7.7959 24.917 8.21973 24.5479 8.56152C24.1924 8.88965 23.7549 9.05371 23.2354 9.05371C22.7158 9.05371 22.2715 8.88965 21.9023 8.56152C21.5469 8.21973 21.3691 7.7959 21.3691 7.29004ZM33.4482 36.124C33.4482 35.6182 33.6123 35.208 33.9404 34.8936C34.2686 34.5518 34.6787 34.3809 35.1709 34.3809C35.7041 34.3809 36.1416 34.5518 36.4834 34.8936L39.6826 38.0107C40.0381 38.3936 40.2158 38.8379 40.2158 39.3438C40.2158 39.8496 40.0381 40.2803 39.6826 40.6357C38.8076 41.3193 37.9326 41.3193 37.0576 40.6357L33.9404 37.5186C33.6123 37.1494 33.4482 36.6846 33.4482 36.124ZM33.4482 12.2324C33.4482 11.6855 33.6123 11.2549 33.9404 10.9404L37.0576 7.7207C37.4404 7.36523 37.8711 7.1875 38.3496 7.1875C38.8691 7.1875 39.3066 7.37207 39.6621 7.74121C40.0312 8.11035 40.2158 8.54785 40.2158 9.05371C40.2158 9.60059 40.0381 10.0518 39.6826 10.4072L36.4834 13.5244C36.0869 13.8799 35.6494 14.0576 35.1709 14.0576C34.6787 14.0576 34.2686 13.8867 33.9404 13.5449C33.6123 13.1895 33.4482 12.752 33.4482 12.2324ZM38.9033 25.5215C38.5615 25.1523 38.3906 24.708 38.3906 24.1885C38.3906 23.6689 38.5684 23.2178 38.9238 22.835C39.2793 22.4795 39.6963 22.3018 40.1748 22.3018H44.6045C45.1104 22.3018 45.5479 22.4932 45.917 22.876C46.2998 23.2451 46.4912 23.6826 46.4912 24.1885C46.4912 24.6943 46.2998 25.1318 45.917 25.501C45.5479 25.8701 45.1104 26.0547 44.6045 26.0547H40.1748C39.6689 26.0547 39.2451 25.877 38.9033 25.5215Z" fill="white" fill-opacity="0.7"/>
</svg>
