<svg width="46" height="46" viewBox="0 0 46 46" fill="none" xmlns="http://www.w3.org/2000/svg">
<path d="M0 21.2334C0 23.6807 0.710937 25.8613 2.13281 27.7754C3.56836 29.6758 5.43457 30.9746 7.73145 31.6719C7.92285 31.7129 8.10059 31.6582 8.26465 31.5078L10.8076 28.3701C8.86621 28.3701 7.20508 27.6729 5.82422 26.2783C4.44336 24.8838 3.75293 23.2021 3.75293 21.2334C3.75293 19.3877 4.36816 17.7881 5.59863 16.4346C6.8291 15.0674 8.36035 14.3086 10.1924 14.1582L11.3408 14.0146C11.5732 14.0146 11.6895 13.9189 11.6895 13.7275L11.8535 12.5176C12.127 10.1113 13.1387 8.12207 14.8887 6.5498C16.6523 4.96387 18.7305 4.1709 21.123 4.1709C23.5293 4.1709 25.6211 4.9707 27.3984 6.57031C29.1895 8.15625 30.1943 10.1387 30.4131 12.5176L30.5771 13.7891C30.6318 14.0352 30.7891 14.1582 31.0488 14.1582H34.5967C36.5654 14.1582 38.2402 14.8486 39.6211 16.2295C41.002 17.6104 41.6924 19.2783 41.6924 21.2334C41.6924 23.0518 41.0771 24.6445 39.8467 26.0117C38.6162 27.3652 37.1055 28.1514 35.3145 28.3701C35.0547 28.3701 34.6992 28.4111 34.248 28.4932C33.8242 28.5342 33.5234 28.6982 33.3457 28.9854L28.1777 35.0967C27.8633 35.4932 27.7402 35.9512 27.8086 36.4707C27.8906 36.9902 28.123 37.4072 28.5059 37.7217C28.7383 37.9951 29.1484 38.1318 29.7363 38.1318C30.3105 38.1318 30.7549 37.8789 31.0693 37.373L35.7041 32.041C38.4248 31.7676 40.7217 30.5918 42.5947 28.5137C44.4678 26.4355 45.4043 24.0088 45.4043 21.2334C45.4043 19.7568 45.1172 18.3486 44.543 17.0088C43.9824 15.6689 43.2168 14.5205 42.2461 13.5635C41.2891 12.5928 40.1406 11.8203 38.8008 11.2461C37.4746 10.6719 36.0732 10.3848 34.5967 10.3848H33.8994C33.1748 7.48633 31.623 5.11426 29.2441 3.26855C26.8789 1.40918 24.1719 0.479492 21.123 0.479492C19.0859 0.479492 17.165 0.916992 15.3604 1.79199C13.5693 2.65332 12.0586 3.86328 10.8281 5.42188C9.59766 6.9668 8.77051 8.73047 8.34668 10.7129C5.88574 11.2598 3.87598 12.5176 2.31738 14.4863C0.772461 16.4414 0 18.6904 0 21.2334ZM7.40332 38.7676C7.40332 38.9043 7.44434 39.123 7.52637 39.4238C7.71777 39.8887 8.03906 40.21 8.49023 40.3877C8.96875 40.6064 9.4541 40.6201 9.94629 40.4287C10.4385 40.2373 10.7734 39.9092 10.9512 39.4443C11.1699 38.9658 11.1836 38.4941 10.9922 38.0293C10.8008 37.5645 10.4658 37.25 9.9873 37.0859C9.49512 36.8535 9.02344 36.833 8.57227 37.0244C8.12109 37.2158 7.78613 37.5576 7.56738 38.0498C7.45801 38.2822 7.40332 38.5215 7.40332 38.7676ZM11.4434 33.4355V33.6611C11.4844 34.1533 11.7031 34.5635 12.0996 34.8916C12.5918 35.165 13.043 35.3018 13.4531 35.3018C13.9453 35.3018 14.3896 35.0625 14.7861 34.584L19.8721 28.5342C20.1865 28.1514 20.3301 27.6729 20.3027 27.0986C20.248 26.6338 20.043 26.2441 19.6875 25.9297C19.3457 25.6152 18.9697 25.458 18.5596 25.458C18.4365 25.458 18.334 25.4648 18.252 25.4785C17.7461 25.5742 17.3359 25.8135 17.0215 26.1963L11.8535 32.2666C11.5801 32.5811 11.4434 32.9707 11.4434 33.4355ZM13.2891 43.0537C13.1797 43.2588 13.125 43.4912 13.125 43.751C13.125 44.0107 13.1797 44.2432 13.2891 44.4482C13.4668 44.9131 13.7881 45.2549 14.2529 45.4736C14.4854 45.583 14.7246 45.6377 14.9707 45.6377C15.2441 45.6377 15.4697 45.583 15.6475 45.4736C16.1533 45.2686 16.4951 44.9678 16.6729 44.5713C16.8916 44.0928 16.9053 43.6074 16.7139 43.1152C16.5361 42.623 16.2148 42.2881 15.75 42.1104C15.2715 41.8916 14.7793 41.8779 14.2734 42.0693C13.7812 42.2607 13.4531 42.5889 13.2891 43.0537ZM16.7754 38.624V38.8701C16.8301 39.3486 17.0557 39.7451 17.4521 40.0596C17.8486 40.3877 18.252 40.5518 18.6621 40.5518C19.1543 40.5518 19.6123 40.3125 20.0361 39.834L29.5518 28.3701C29.7979 28.0967 29.9209 27.7207 29.9209 27.2422V26.9756C29.8662 26.4834 29.668 26.0938 29.3262 25.8066C28.9844 25.5195 28.6016 25.376 28.1777 25.376H27.8906C27.3848 25.4033 26.9814 25.6289 26.6807 26.0527L17.165 37.4346C16.9053 37.8174 16.7754 38.2139 16.7754 38.624ZM24.4658 41.1465C24.4658 41.3379 24.5068 41.5566 24.5889 41.8027C24.7803 42.2812 25.1152 42.623 25.5938 42.8281C25.8945 42.9102 26.1201 42.9512 26.2705 42.9512C26.585 42.9512 26.8311 42.8965 27.0088 42.7871C27.501 42.5957 27.8359 42.2881 28.0137 41.8643C28.2324 41.4951 28.2461 41.0098 28.0547 40.4082C27.877 39.957 27.5557 39.6357 27.0908 39.4443L26.3115 39.2393C26.1201 39.2803 25.8877 39.335 25.6143 39.4033C25.1357 39.5811 24.8076 39.9023 24.6299 40.3672C24.5205 40.627 24.4658 40.8867 24.4658 41.1465Z" fill="white" fill-opacity="0.7"/>
</svg>
