<svg width="60" height="60" viewBox="0 0 60 60" fill="none" xmlns="http://www.w3.org/2000/svg">
<path d="M0 35.1309C0 37.5781 0.724609 39.7656 2.17383 41.6934C3.63672 43.6211 5.52344 44.9062 7.83398 45.5488L6.39844 49.2607C6.28906 49.5752 6.3916 49.7324 6.70605 49.7324H11.3613L8.24414 58.9404H8.87988L18.416 46.5537C18.498 46.458 18.5117 46.3555 18.457 46.2461C18.4023 46.1504 18.2998 46.1025 18.1494 46.1025H13.3506L18.8057 35.9307C18.9697 35.6162 18.8672 35.459 18.498 35.459H12.0176C11.8125 35.459 11.6416 35.5684 11.5049 35.7871L9.16699 42.083C7.59473 41.6865 6.2959 40.8457 5.27051 39.5605C4.24512 38.2617 3.73242 36.7852 3.73242 35.1309C3.73242 33.2852 4.34766 31.6924 5.57812 30.3525C6.80859 29.0127 8.34668 28.2334 10.1924 28.0146L11.2998 27.9531C11.5596 27.9531 11.7236 27.8506 11.792 27.6455L11.9561 26.3535C12.1885 23.9883 13.1865 22.0059 14.9502 20.4062C16.7275 18.793 18.8193 17.9863 21.2256 17.9863C23.6045 17.9863 25.6895 18.793 27.4805 20.4062C29.2852 22.0059 30.3105 23.9883 30.5566 26.3535L30.7207 27.6455C30.7207 27.8916 30.8506 28.0146 31.1104 28.0146H34.6377C36.5928 28.0146 38.2744 28.7188 39.6826 30.127C41.0908 31.5215 41.7949 33.1895 41.7949 35.1309C41.7949 37.0312 41.1387 38.6855 39.8262 40.0938C38.5273 41.4883 36.9414 42.2334 35.0684 42.3291C34.7812 42.3291 34.6377 42.459 34.6377 42.7188V45.6514C34.6377 45.8975 34.7812 46.0205 35.0684 46.0205C36.9961 45.9658 38.7598 45.4463 40.3594 44.4619C41.9727 43.4639 43.2441 42.1445 44.1738 40.5039C45.1035 38.8496 45.5684 37.0586 45.5684 35.1309C45.5684 33.5312 45.2539 32.0615 44.625 30.7217C46.293 28.6162 47.127 26.2168 47.127 23.5234C47.127 21.4453 46.6074 19.5244 45.5684 17.7607C44.543 15.9834 43.1416 14.582 41.3643 13.5566C39.6006 12.5176 37.6797 11.998 35.6016 11.998C34.0293 11.998 32.498 12.3262 31.0078 12.9824C29.5312 13.6387 28.2529 14.5479 27.1729 15.71C25.4092 14.7666 23.4268 14.2949 21.2256 14.2949C18.1221 14.2949 15.3672 15.2588 12.9609 17.1865C10.5684 19.1006 9.03711 21.5547 8.36719 24.5488C5.94727 25.1094 3.94434 26.3809 2.3584 28.3633C0.786133 30.3457 0 32.6016 0 35.1309ZM17.2471 57.4844C17.2471 57.8535 17.3633 58.209 17.5957 58.5508C17.8281 58.9062 18.1836 59.1523 18.6621 59.2891C18.8535 59.3301 19.0312 59.3506 19.1953 59.3506C20.1387 59.3506 20.7197 58.9062 20.9385 58.0176L21.2256 56.7256C21.3623 56.165 21.3008 55.666 21.041 55.2285C20.7812 54.791 20.3984 54.5244 19.8926 54.4287C19.4277 54.2783 18.9697 54.3262 18.5186 54.5723C18.0674 54.832 17.7666 55.208 17.6162 55.7002L17.3291 56.9922C17.2744 57.2383 17.2471 57.4023 17.2471 57.4844ZM18.416 8.24512C18.416 8.75098 18.6006 9.18848 18.9697 9.55762L20.3848 10.9932C20.7266 11.335 21.1299 11.5264 21.5947 11.5674C22.0459 11.6357 22.4902 11.4717 22.9277 11.0752C23.3652 10.6787 23.584 10.2139 23.584 9.68066C23.584 9.1748 23.3994 8.7373 23.0303 8.36816L21.6562 6.93262C21.3008 6.57715 20.8633 6.39941 20.3438 6.39941C19.7969 6.39941 19.3389 6.57715 18.9697 6.93262C18.6006 7.28809 18.416 7.72559 18.416 8.24512ZM18.9697 51.127C18.9697 51.6191 19.1475 52.043 19.5029 52.3984C19.8584 52.7539 20.2822 52.9316 20.7744 52.9316C21.2939 52.9316 21.7246 52.7607 22.0664 52.4189C22.4082 52.0771 22.5791 51.6465 22.5791 51.127C22.5791 50.6211 22.4082 50.1973 22.0664 49.8555C21.7246 49.5137 21.2939 49.3428 20.7744 49.3428C20.2549 49.3428 19.8242 49.5137 19.4824 49.8555C19.1406 50.1973 18.9697 50.6211 18.9697 51.127ZM20.3232 46.1641C20.2959 46.4922 20.3916 46.834 20.6104 47.1895C20.8428 47.5449 21.1777 47.7637 21.6152 47.8457C22.1211 47.9824 22.5859 47.9414 23.0098 47.7227C23.4336 47.5039 23.7344 47.0938 23.9121 46.4922L24.4863 44.5234C24.6367 44.0449 24.582 43.5869 24.3223 43.1494C24.0762 42.7119 23.6934 42.418 23.1738 42.2676C22.6953 42.1172 22.2305 42.1787 21.7793 42.4521C21.3281 42.7119 21.0273 43.0947 20.877 43.6006L20.3848 45.5693C20.3438 45.7471 20.3232 45.9453 20.3232 46.1641ZM26.373 50.8604C26.373 51.2295 26.4824 51.5781 26.7012 51.9062C26.9199 52.248 27.2549 52.4873 27.7061 52.624C27.7744 52.624 27.877 52.6377 28.0137 52.665C28.1504 52.6924 28.2529 52.7061 28.3213 52.7061C29.21 52.7061 29.7637 52.2275 29.9824 51.2705L30.29 49.958C30.4404 49.4932 30.3857 49.0352 30.126 48.584C29.8799 48.1328 29.5107 47.832 29.0186 47.6816C28.4717 47.5449 27.9727 47.5996 27.5215 47.8457C27.084 48.1055 26.79 48.4951 26.6396 49.0146L26.4346 50.3066C26.4346 50.334 26.4209 50.416 26.3936 50.5527C26.3799 50.6895 26.373 50.792 26.373 50.8604ZM27.9932 44.4004C27.9932 44.9062 28.1709 45.3232 28.5264 45.6514C28.8545 46.0068 29.2783 46.1846 29.7979 46.1846C30.3174 46.1846 30.748 46.0137 31.0898 45.6719C31.4316 45.3301 31.6025 44.9062 31.6025 44.4004C31.6025 43.8809 31.4316 43.4502 31.0898 43.1084C30.748 42.7666 30.3174 42.5957 29.7979 42.5957C29.2783 42.5957 28.8477 42.7666 28.5059 43.1084C28.1641 43.4502 27.9932 43.8809 27.9932 44.4004ZM30.249 17.9248C31.7119 16.5166 33.4961 15.8125 35.6016 15.8125C37.748 15.8125 39.5732 16.5645 41.0771 18.0684C42.5947 19.5586 43.3535 21.377 43.3535 23.5234C43.3535 24.959 43.0117 26.2783 42.3281 27.4814C40.2227 25.376 37.6592 24.3232 34.6377 24.3232H33.9609C33.3184 21.7256 32.0811 19.5928 30.249 17.9248ZM33.7354 6.39941C33.7354 6.91895 33.9131 7.36328 34.2686 7.73242C34.6377 8.10156 35.082 8.28613 35.6016 8.28613C36.1211 8.28613 36.5518 8.1084 36.8936 7.75293C37.249 7.38379 37.4268 6.93262 37.4268 6.39941V1.8877C37.4268 1.35449 37.249 0.910156 36.8936 0.554688C36.5518 0.185547 36.1211 0.000976562 35.6016 0.000976562C35.082 0.000976562 34.6377 0.185547 34.2686 0.554688C33.9131 0.923828 33.7354 1.36816 33.7354 1.8877V6.39941ZM46.4502 10.0908C46.1084 10.4326 45.9375 10.8701 45.9375 11.4033C45.9375 11.9365 46.1084 12.374 46.4502 12.7158C46.751 13.0576 47.1475 13.249 47.6396 13.29C48.1455 13.3174 48.6104 13.126 49.0342 12.7158L52.1924 9.55762C52.5752 9.20215 52.7666 8.76465 52.7666 8.24512C52.7666 7.72559 52.5752 7.28809 52.1924 6.93262C51.8369 6.5498 51.3994 6.3584 50.8799 6.3584C50.374 6.3584 49.9502 6.5498 49.6084 6.93262L46.4502 10.0908ZM47.6396 37.4688C47.6396 37.9746 47.8242 38.4121 48.1934 38.7812L49.6084 40.1553C50.0049 40.5244 50.4561 40.709 50.9619 40.709L51.0029 40.75C51.4814 40.75 51.8779 40.5518 52.1924 40.1553C52.5752 39.7998 52.7666 39.3623 52.7666 38.8428C52.7666 38.3369 52.5752 37.8926 52.1924 37.5098L50.8389 36.1562C50.4424 35.7598 49.998 35.5615 49.5059 35.5615C48.9863 35.5615 48.542 35.7529 48.1729 36.1357C47.8174 36.5049 47.6396 36.9492 47.6396 37.4688ZM50.8389 23.5234C50.8389 24.0566 51.0303 24.4873 51.4131 24.8154C51.7549 25.1982 52.1924 25.3896 52.7256 25.3896H57.2373C57.7568 25.3896 58.2012 25.2119 58.5703 24.8564C58.9395 24.4873 59.124 24.043 59.124 23.5234C59.124 23.0039 58.9395 22.5732 58.5703 22.2314C58.2148 21.876 57.7705 21.6982 57.2373 21.6982H52.7256C52.1924 21.6982 51.7412 21.876 51.3721 22.2314C51.0166 22.5732 50.8389 23.0039 50.8389 23.5234Z" fill="white" fill-opacity="0.7"/>
</svg>
