<svg width="48" height="48" viewBox="0 0 48 48" fill="none" xmlns="http://www.w3.org/2000/svg">
<path d="M0 23.3564V23.3359V23.3154C0 20.7861 0.786133 18.5303 2.3584 16.5479C3.94434 14.5654 5.94727 13.2939 8.36719 12.7334C9.03711 9.73926 10.5684 7.28516 12.9609 5.37109C15.3672 3.44336 18.1221 2.47949 21.2256 2.47949C23.3994 2.47949 25.3818 2.95801 27.1729 3.91504C28.2666 2.75293 29.5518 1.84375 31.0283 1.1875C32.5049 0.517578 34.0293 0.182617 35.6016 0.182617C37.6797 0.182617 39.6006 0.702148 41.3643 1.74121C43.1416 2.7666 44.543 4.16797 45.5684 5.94531C46.6074 7.70898 47.127 9.62988 47.127 11.708C47.127 14.4014 46.293 16.8008 44.625 18.9062C45.2539 20.2461 45.5684 21.7158 45.5684 23.3154C45.5684 25.2432 45.1035 27.0342 44.1738 28.6885C43.2441 30.3291 41.9727 31.6484 40.3594 32.6465C38.7598 33.6309 36.9961 34.1504 35.0684 34.2051C34.7812 34.2051 34.6377 34.082 34.6377 33.8359V30.9033C34.6377 30.6436 34.7812 30.5137 35.0684 30.5137C36.9414 30.418 38.5273 29.6729 39.8262 28.2783C41.1387 26.8701 41.7949 25.2158 41.7949 23.3154C41.7949 21.374 41.0908 19.7061 39.6826 18.3115C38.2744 16.917 36.5928 16.2197 34.6377 16.2197H31.1104C30.8506 16.2197 30.7207 16.0898 30.7207 15.8301L30.5566 14.5381C30.3105 12.1729 29.2852 10.1904 27.4805 8.59082C25.6895 6.97754 23.6045 6.1709 21.2256 6.1709C18.8193 6.1709 16.7275 6.97754 14.9502 8.59082C13.1865 10.1904 12.1885 12.1729 11.9561 14.5381L11.792 15.8301C11.7236 16.0352 11.5596 16.1377 11.2998 16.1377L10.1924 16.2197C8.34668 16.4385 6.80859 17.2178 5.57812 18.5576C4.34766 19.8838 3.73242 21.4697 3.73242 23.3154V23.3975C3.75977 23.4248 3.78027 23.4385 3.79395 23.4385C3.80762 25.2979 4.46387 26.918 5.7627 28.2988C6.37793 28.9414 7.04785 29.4268 7.77246 29.7549V29.7959C8.59277 30.2197 9.49512 30.4658 10.4795 30.5342C10.7256 30.5342 10.8486 30.6572 10.8486 30.9033V33.8359C10.8486 34.082 10.7256 34.2051 10.4795 34.2051C9.41309 34.1504 8.36719 33.9385 7.3418 33.5693C5.6875 33.0225 4.25195 32.127 3.03516 30.8828C1.83203 29.625 0.977539 28.1621 0.47168 26.4941C0.157227 25.4688 0 24.4229 0 23.3564ZM12.0381 39.0449C12.0381 38.9766 12.0518 38.8809 12.0791 38.7578C12.1064 38.6348 12.1201 38.5459 12.1201 38.4912L12.3252 37.2197C12.4756 36.7002 12.7764 36.3105 13.2275 36.0508C13.6787 35.791 14.1709 35.7295 14.7041 35.8662C15.1963 36.0166 15.5654 36.3174 15.8115 36.7686C16.0576 37.2197 16.1055 37.6777 15.9551 38.1426L15.6475 39.4551C15.4287 40.4121 14.875 40.8906 13.9863 40.8906C13.918 40.8906 13.8086 40.877 13.6582 40.8496C13.5215 40.8359 13.4326 40.8291 13.3916 40.8291C12.9404 40.6924 12.5986 40.4531 12.3662 40.1113C12.1475 39.7695 12.0381 39.4141 12.0381 39.0449ZM13.6582 32.585C13.6582 32.0654 13.8291 31.6348 14.1709 31.293C14.5127 30.9512 14.9434 30.7803 15.4629 30.7803C15.9824 30.7803 16.4131 30.9512 16.7549 31.293C17.0967 31.6348 17.2676 32.0654 17.2676 32.585C17.2676 33.0908 17.0967 33.5146 16.7549 33.8564C16.4131 34.1982 15.9824 34.3691 15.4629 34.3691C14.957 34.3691 14.54 34.1914 14.2119 33.8359C13.8428 33.4941 13.6582 33.0771 13.6582 32.585ZM17.2471 45.6689C17.2471 45.5869 17.2744 45.4229 17.3291 45.1768L17.6162 43.8848C17.7666 43.3926 18.0674 43.0234 18.5186 42.7773C18.9697 42.5312 19.4277 42.4834 19.8926 42.6338C20.3984 42.7295 20.7812 42.9961 21.041 43.4336C21.3008 43.8711 21.3623 44.3701 21.2256 44.9307L20.9385 46.2021C20.7061 47.1045 20.125 47.5557 19.1953 47.5557C19.0859 47.5557 18.9082 47.5283 18.6621 47.4736C18.1836 47.3369 17.8281 47.0908 17.5957 46.7354C17.3633 46.3936 17.2471 46.0381 17.2471 45.6689ZM18.9697 39.3115C18.9697 38.8057 19.1406 38.3818 19.4824 38.04C19.8242 37.7119 20.2549 37.5479 20.7744 37.5479C21.2939 37.5479 21.7246 37.7119 22.0664 38.04C22.4082 38.3818 22.5791 38.8057 22.5791 39.3115C22.5791 39.8311 22.4082 40.2617 22.0664 40.6035C21.7246 40.9453 21.2939 41.1162 20.7744 41.1162C20.2822 41.1162 19.8584 40.9385 19.5029 40.583C19.1475 40.2275 18.9697 39.8037 18.9697 39.3115ZM20.3232 34.3486C20.3232 34.1436 20.3438 33.9521 20.3848 33.7744L20.877 31.8057C21.0273 31.2861 21.3281 30.8965 21.7793 30.6367C22.2305 30.377 22.6953 30.3154 23.1738 30.4521C23.6934 30.6025 24.0762 30.8965 24.3223 31.334C24.582 31.7715 24.6367 32.2295 24.4863 32.708L23.9121 34.6768C23.7344 35.2783 23.4336 35.6885 23.0098 35.9072C22.5859 36.126 22.1211 36.167 21.6152 36.0303C21.1777 35.9482 20.8428 35.7295 20.6104 35.374C20.3916 35.0186 20.2959 34.6768 20.3232 34.3486ZM26.373 39.0449C26.373 38.9766 26.3799 38.874 26.3936 38.7373C26.4209 38.6006 26.4346 38.5186 26.4346 38.4912L26.6396 37.2197C26.79 36.7002 27.0908 36.3105 27.542 36.0508C27.9932 35.791 28.4854 35.7295 29.0186 35.8662C29.5107 36.0166 29.8799 36.3174 30.126 36.7686C30.3857 37.2197 30.4404 37.6777 30.29 38.1426L29.9824 39.4551C29.7637 40.4121 29.21 40.8906 28.3213 40.8906C28.2529 40.8906 28.1436 40.877 27.9932 40.8496C27.8428 40.8359 27.7471 40.8291 27.7061 40.8291C27.2686 40.6924 26.9336 40.4531 26.7012 40.1113C26.4824 39.7695 26.373 39.4141 26.373 39.0449ZM27.9932 32.585C27.9932 32.0654 28.1641 31.6348 28.5059 31.293C28.8477 30.9512 29.2783 30.7803 29.7979 30.7803C30.3174 30.7803 30.748 30.9512 31.0898 31.293C31.4316 31.6348 31.6025 32.0654 31.6025 32.585C31.6025 33.0908 31.4316 33.5146 31.0898 33.8564C30.748 34.1982 30.3174 34.3691 29.7979 34.3691C29.2783 34.3691 28.8545 34.1914 28.5264 33.8359C28.1709 33.5078 27.9932 33.0908 27.9932 32.585ZM30.249 6.10938C32.0811 7.77734 33.3184 9.91016 33.9609 12.5078H34.6377C37.6592 12.5078 40.2227 13.5605 42.3281 15.666C43.0117 14.4629 43.3535 13.1436 43.3535 11.708C43.3535 9.56152 42.5947 7.74316 41.0771 6.25293C39.5732 4.74902 37.748 3.99707 35.6016 3.99707C33.4961 3.99707 31.7119 4.70117 30.249 6.10938Z" fill="white" fill-opacity="0.7"/>
</svg>
