<svg width="53" height="49" viewBox="0 0 53 49" fill="none" xmlns="http://www.w3.org/2000/svg">
<path d="M0 27.5635C0 28.1514 0.205078 28.6367 0.615234 29.0195C1.02539 29.4023 1.55176 29.5938 2.19434 29.5938H5.88574C6.47363 29.5938 6.97266 29.4023 7.38281 29.0195C7.80664 28.623 8.01855 28.1377 8.01855 27.5635C8.01855 26.9346 7.81348 26.415 7.40332 26.0049C6.99316 25.5947 6.4873 25.3896 5.88574 25.3896H2.19434C1.55176 25.3896 1.02539 25.5947 0.615234 26.0049C0.205078 26.4014 0 26.9209 0 27.5635ZM3.87598 41.0986C3.87598 43.2178 4.64844 45.0498 6.19336 46.5947C7.73828 48.1533 9.57031 48.9326 11.6895 48.9326H26.7012C28.8203 48.9326 30.6318 48.167 32.1357 46.6357C33.6533 45.1045 34.4121 43.2588 34.4121 41.0986C34.4121 40.0459 34.2617 39.1504 33.9609 38.4121C35.7793 37.25 37.2148 35.7051 38.2676 33.7773C39.334 31.8359 39.8672 29.7646 39.8672 27.5635C39.8672 25.7861 39.5186 24.0908 38.8213 22.4775C38.124 20.8506 37.1875 19.4561 36.0117 18.2939C34.8496 17.1182 33.4551 16.1816 31.8281 15.4844C30.2148 14.7871 28.5264 14.4385 26.7627 14.4385C24.3701 14.4385 22.1621 15.0264 20.1387 16.2021C18.1289 17.3779 16.543 18.9707 15.3809 20.9805C14.2324 22.9902 13.6582 25.1846 13.6582 27.5635V28.3018C11.4707 29.5459 10.0283 31.3643 9.33105 33.7568C7.67676 34.2764 6.35059 35.1992 5.35254 36.5254C4.36816 37.8516 3.87598 39.376 3.87598 41.0986ZM7.28027 10.1113C7.28027 10.7266 7.47168 11.2188 7.85449 11.5879L11.3818 15.2793C12.4072 16.0586 13.4326 16.0586 14.458 15.2793C14.8682 14.8691 15.0732 14.3564 15.0732 13.7412C15.0732 13.1533 14.8682 12.6406 14.458 12.2031L10.8486 8.61426C10.3838 8.19043 9.87793 7.97852 9.33105 7.97852C8.71582 7.97852 8.2168 8.18359 7.83398 8.59375C7.46484 9.00391 7.28027 9.50977 7.28027 10.1113ZM8.20312 41.0986C8.20312 40.1826 8.49707 39.3965 9.08496 38.7402C9.67285 38.084 10.418 37.7148 11.3203 37.6328L12.6738 37.4482C12.9609 37.4482 13.1045 37.2842 13.1045 36.9561L13.3096 35.7256C13.46 34.4678 13.9932 33.415 14.9092 32.5674C15.8252 31.7197 16.9053 31.2959 18.1494 31.2959C19.4209 31.2959 20.5215 31.7197 21.4512 32.5674C22.3945 33.415 22.9414 34.4678 23.0918 35.7256L23.2764 37.1406C23.4131 37.4688 23.5908 37.6328 23.8096 37.6328H26.7012C27.6445 37.6328 28.458 37.9746 29.1416 38.6582C29.8389 39.3418 30.1875 40.1553 30.1875 41.0986C30.1875 42.083 29.8389 42.9238 29.1416 43.6211C28.458 44.3184 27.6445 44.667 26.7012 44.667H11.6895C10.7051 44.667 9.87793 44.3184 9.20801 43.6211C8.53809 42.9238 8.20312 42.083 8.20312 41.0986ZM17.8828 27.1123C18.0332 24.7197 18.9561 22.71 20.6514 21.083C22.3467 19.4561 24.3838 18.6426 26.7627 18.6426C29.1963 18.6426 31.2676 19.5107 32.9766 21.2471C34.6855 22.9834 35.54 25.0889 35.54 27.5635C35.54 29.0947 35.1641 30.5166 34.4121 31.8291C33.6738 33.1279 32.6689 34.1807 31.3975 34.9873C30.1123 33.9209 28.6289 33.3877 26.9473 33.3877C26.3047 31.4736 25.1836 29.9492 23.584 28.8145C21.9844 27.6797 20.1729 27.1123 18.1494 27.1123H17.8828ZM24.6299 7.97852C24.6299 8.58008 24.835 9.09277 25.2451 9.5166C25.6689 9.92676 26.1748 10.1318 26.7627 10.1318C27.3643 10.1318 27.8701 9.92676 28.2803 9.5166C28.7041 9.09277 28.916 8.58008 28.916 7.97852V2.85156C28.916 2.27734 28.7041 1.79883 28.2803 1.41602C27.8701 1.01953 27.3643 0.821289 26.7627 0.821289C26.1748 0.821289 25.6689 1.01953 25.2451 1.41602C24.835 1.79883 24.6299 2.27734 24.6299 2.85156V7.97852ZM39.0264 39.8066C38.6436 40.2031 38.4521 40.6953 38.4521 41.2832C38.4521 41.8711 38.6504 42.3838 39.0469 42.8213L42.6357 46.3691C43.5518 47.2988 44.5771 47.2988 45.7119 46.3691C46.0947 46 46.2861 45.5078 46.2861 44.8926C46.2861 44.3047 46.0947 43.8193 45.7119 43.4365L42.0205 39.7656C41.624 39.3965 41.125 39.2119 40.5234 39.2119C39.9219 39.2119 39.4229 39.4102 39.0264 39.8066ZM38.4521 13.7002C38.4521 14.3154 38.6504 14.8418 39.0469 15.2793C39.4434 15.6758 39.9355 15.874 40.5234 15.874C41.125 15.874 41.624 15.6758 42.0205 15.2793L45.7119 11.5879C46.0947 11.2188 46.2861 10.7266 46.2861 10.1113C46.2861 9.50977 46.0742 9.00391 45.6504 8.59375C45.2402 8.18359 44.7344 7.97852 44.1328 7.97852C43.5586 7.97852 43.0596 8.19043 42.6357 8.61426L39.0469 12.2031C38.6504 12.5996 38.4521 13.0986 38.4521 13.7002ZM44.1123 27.5635C44.1123 28.1514 44.3174 28.6367 44.7275 29.0195C45.1377 29.4023 45.6641 29.5938 46.3066 29.5938H49.998C50.5859 29.5938 51.085 29.4023 51.4951 29.0195C51.9189 28.623 52.1309 28.1377 52.1309 27.5635C52.1309 26.9346 51.9258 26.415 51.5156 26.0049C51.1055 25.5947 50.5996 25.3896 49.998 25.3896H46.3066C45.6641 25.3896 45.1377 25.5947 44.7275 26.0049C44.3174 26.4014 44.1123 26.9209 44.1123 27.5635Z" fill="white" fill-opacity="0.7"/>
</svg>
