<svg width="36" height="35" viewBox="0 0 36 35" fill="none" xmlns="http://www.w3.org/2000/svg">
<path d="M0 27.0986C0 29.2178 0.772461 31.0498 2.31738 32.5947C3.87598 34.1533 5.71484 34.9326 7.83398 34.9326H22.8252C24.9443 34.9326 26.7559 34.167 28.2598 32.6357C29.7773 31.1045 30.5361 29.2588 30.5361 27.0986C30.5361 26.0459 30.3857 25.1504 30.085 24.4121C31.9033 23.25 33.3389 21.7051 34.3916 19.7773C35.458 17.8359 35.9912 15.7646 35.9912 13.5635C35.9912 11.7861 35.6426 10.0908 34.9453 8.47754C34.2617 6.85059 33.332 5.45605 32.1562 4.29395C30.9805 3.11816 29.5859 2.18164 27.9727 1.48438C26.3594 0.787109 24.6709 0.438477 22.9072 0.438477C20.5146 0.438477 18.3066 1.02637 16.2832 2.20215C14.2734 3.37793 12.6875 4.9707 11.5254 6.98047C10.377 8.99023 9.80273 11.1846 9.80273 13.5635V14.3018C7.60156 15.5596 6.15234 17.3779 5.45508 19.7568C3.80078 20.2764 2.47461 21.1992 1.47656 22.5254C0.492188 23.8516 0 25.376 0 27.0986ZM4.32715 27.0986C4.32715 26.1826 4.62109 25.3965 5.20898 24.7402C5.79688 24.084 6.54199 23.7148 7.44434 23.6328L8.81836 23.4482C9.0918 23.4482 9.22852 23.2842 9.22852 22.9561L9.4541 21.7256C9.60449 20.4678 10.1309 19.415 11.0332 18.5674C11.9492 17.7197 13.0293 17.2959 14.2734 17.2959C15.5449 17.2959 16.6455 17.7197 17.5752 18.5674C18.5186 19.415 19.0654 20.4678 19.2158 21.7256L19.4004 23.1406C19.5371 23.4688 19.7217 23.6328 19.9541 23.6328H22.8252C23.7686 23.6328 24.582 23.9746 25.2656 24.6582C25.9629 25.3418 26.3115 26.1553 26.3115 27.0986C26.3115 28.083 25.9629 28.9238 25.2656 29.6211C24.582 30.3184 23.7686 30.667 22.8252 30.667H7.83398C6.84961 30.667 6.01562 30.3184 5.33203 29.6211C4.66211 28.9238 4.32715 28.083 4.32715 27.0986ZM14.0068 13.1123C14.1572 10.7197 15.0801 8.70996 16.7754 7.08301C18.4844 5.45605 20.5283 4.64258 22.9072 4.64258C25.3408 4.64258 27.4053 5.51074 29.1006 7.24707C30.8096 8.9834 31.6641 11.0889 31.6641 13.5635C31.6641 15.0947 31.2949 16.5166 30.5566 17.8291C29.8184 19.1279 28.8135 20.1807 27.542 20.9873C26.2568 19.9209 24.7734 19.3877 23.0918 19.3877C22.4492 17.4736 21.3213 15.9492 19.708 14.8145C18.1084 13.6797 16.2969 13.1123 14.2734 13.1123H14.0068Z" fill="white" fill-opacity="0.7"/>
</svg>
