<svg width="48" height="46" viewBox="0 0 48 46" fill="none" xmlns="http://www.w3.org/2000/svg">
<path d="M0 24.4756C0 23.9561 0.198242 23.5117 0.594727 23.1426C0.963867 22.7734 1.41504 22.5889 1.94824 22.5889H6.45996C6.97949 22.5889 7.41699 22.7734 7.77246 23.1426C8.1416 23.5117 8.32617 23.9561 8.32617 24.4756C8.32617 25.0225 8.1416 25.4805 7.77246 25.8496C7.41699 26.2188 6.97949 26.4033 6.45996 26.4033H1.94824C1.40137 26.4033 0.936523 26.2188 0.553711 25.8496C0.18457 25.4805 0 25.0225 0 24.4756ZM6.39844 9.13574C6.39844 8.62988 6.57617 8.17871 6.93164 7.78223C7.3418 7.41309 7.82031 7.22852 8.36719 7.22852C8.83203 7.22852 9.2627 7.41309 9.65918 7.78223L12.8379 11.0225C13.207 11.3643 13.3916 11.8018 13.3916 12.335C13.3916 12.8545 13.207 13.2988 12.8379 13.668C12.4824 14.0234 12.0518 14.2012 11.5459 14.2012C10.9854 14.2012 10.541 14.0166 10.2129 13.6475L6.93164 10.4893C6.57617 10.1064 6.39844 9.65527 6.39844 9.13574ZM12.0996 24.4756C12.0996 22.9307 12.4072 21.4473 13.0225 20.0254C13.6514 18.5898 14.4854 17.3594 15.5244 16.334C16.5771 15.2949 17.8213 14.4678 19.2568 13.8525C20.6924 13.2236 22.1895 12.9092 23.748 12.9092C25.8398 12.9092 27.7812 13.4355 29.5723 14.4883C31.3633 15.5273 32.7783 16.9355 33.8174 18.7129C34.8564 20.4902 35.376 22.4111 35.376 24.4756C35.376 24.8037 35.3555 25.1113 35.3145 25.3984C34.6992 25.0293 33.9951 24.8447 33.2021 24.8447C32.6689 24.8447 32.1426 24.9541 31.623 25.1729C31.6367 25.0225 31.6436 24.79 31.6436 24.4756C31.6436 22.3428 30.8711 20.5244 29.3262 19.0205C27.7812 17.5029 25.9219 16.7441 23.748 16.7441C21.5879 16.7441 19.7354 17.5029 18.1904 19.0205C16.6592 20.5244 15.8936 22.3428 15.8936 24.4756V24.8652C15.251 24.9062 14.6357 25.0908 14.0479 25.4189C14.0342 25.4326 13.959 25.4873 13.8223 25.583C13.6855 25.6787 13.5488 25.7812 13.4121 25.8906C13.2754 25.9863 13.1045 26.123 12.8994 26.3008C12.6943 26.4648 12.5029 26.6357 12.3252 26.8135C12.1748 26.1162 12.0996 25.3369 12.0996 24.4756ZM12.1611 32.4736V32.1455C12.1475 31.9404 12.1611 31.7012 12.2021 31.4277C12.3115 30.6484 12.6191 29.9033 13.125 29.1924C13.4121 28.8369 13.6104 28.6113 13.7197 28.5156C13.7334 28.4746 13.7607 28.4336 13.8018 28.3926C13.8428 28.3516 13.8701 28.3242 13.8838 28.3105C13.9385 28.2832 14.0273 28.208 14.1504 28.085C14.1914 28.0303 14.2461 27.9756 14.3145 27.9209C14.3965 27.8662 14.4512 27.8252 14.4785 27.7979C14.5879 27.6885 14.6904 27.6133 14.7861 27.5723L15.1553 27.3262C15.4697 27.1211 15.832 27.0186 16.2422 27.0186H16.3037C16.5225 27.0186 16.7139 27.0391 16.8779 27.0801C16.9463 27.1074 17.042 27.1553 17.165 27.2236V27.2441C17.4795 27.3809 17.7256 27.5928 17.9033 27.8799C18.0947 28.1533 18.1904 28.4541 18.1904 28.7822C18.1904 29.1514 18.0879 29.459 17.8828 29.7051C17.7461 29.8965 17.582 30.0674 17.3906 30.2178C17.3496 30.2314 17.3018 30.252 17.2471 30.2793C17.2061 30.3066 17.1787 30.3203 17.165 30.3203L17.042 30.4023C16.96 30.4707 16.8848 30.5322 16.8164 30.5869C16.7617 30.6416 16.6865 30.7236 16.5908 30.833C16.4951 30.9287 16.4131 31.0244 16.3447 31.1201C16.2764 31.2158 16.208 31.332 16.1396 31.4688C16.085 31.5918 16.0508 31.7148 16.0371 31.8379V32.125V32.166C16.1191 32.4941 16.2012 32.7539 16.2832 32.9453C16.4336 33.2461 16.6797 33.5674 17.0215 33.9092C17.0488 33.9502 17.2266 34.1348 17.5547 34.4629C19.4414 36.1719 20.3232 37.9971 20.2002 39.9385C20.1592 40.5947 20.002 41.2236 19.7285 41.8252C19.4688 42.4404 19.1611 42.9531 18.8057 43.3633C18.4502 43.7871 18.1631 44.1016 17.9443 44.3066C17.7256 44.5117 17.541 44.6621 17.3906 44.7578C17.377 44.7715 17.3359 44.7988 17.2676 44.8398C17.1992 44.8945 17.1445 44.9287 17.1035 44.9424C16.9258 45.0244 16.7686 45.0723 16.6318 45.0859C16.4404 45.1133 16.2969 45.127 16.2012 45.127C15.5449 45.127 15.0254 44.9082 14.6426 44.4707C14.3281 44.0879 14.1982 43.6572 14.2529 43.1787C14.3076 42.7002 14.5469 42.3105 14.9707 42.0098L15.0117 41.9688C15.0391 41.9414 15.0732 41.9072 15.1143 41.8662C15.1553 41.8389 15.2031 41.7979 15.2578 41.7432C15.3262 41.6885 15.3877 41.627 15.4424 41.5586C15.5107 41.4902 15.5723 41.415 15.627 41.333C15.6953 41.251 15.7568 41.1621 15.8115 41.0664C15.8799 40.9844 15.9414 40.8887 15.9961 40.7793C16.0645 40.6699 16.1191 40.5605 16.1602 40.4512C16.2012 40.3418 16.2354 40.2188 16.2627 40.082C16.29 39.959 16.3037 39.8359 16.3037 39.7129C16.3447 39.2754 16.2354 38.8379 15.9756 38.4004C15.8662 38.168 15.7021 37.9287 15.4834 37.6826C15.333 37.5049 15.2236 37.3887 15.1553 37.334C14.9502 37.0879 14.8408 36.958 14.8271 36.9443C14.7861 36.917 14.7314 36.876 14.6631 36.8213C14.6084 36.7666 14.5674 36.7324 14.54 36.7188C14.2119 36.418 13.9658 36.1582 13.8018 35.9395C13.5283 35.5977 13.3506 35.3652 13.2686 35.2422C12.8447 34.668 12.5576 34.1006 12.4072 33.54C12.3115 33.2256 12.2568 32.9932 12.2432 32.8428C12.2432 32.8018 12.2295 32.7471 12.2021 32.6787C12.1748 32.5967 12.1611 32.5283 12.1611 32.4736ZM20.6514 31.7354C20.6514 31.6123 20.6582 31.5098 20.6719 31.4277C20.7266 30.9492 20.8701 30.4844 21.1025 30.0332C21.335 29.5684 21.5879 29.1787 21.8613 28.8643C22.1484 28.5498 22.4219 28.2764 22.6816 28.0439C22.9551 27.7979 23.1875 27.6133 23.3789 27.4902L23.6455 27.3262C23.9736 27.1211 24.3359 27.0186 24.7324 27.0186C24.9785 27.0186 25.1973 27.0391 25.3887 27.0801C25.4023 27.0801 25.4365 27.1006 25.4912 27.1416C25.5596 27.1689 25.6074 27.1963 25.6348 27.2236C25.6621 27.2236 25.6826 27.2305 25.6963 27.2441C25.71 27.2441 25.7646 27.2783 25.8604 27.3467C26.2979 27.6064 26.5713 28.0029 26.6807 28.5361C26.6807 28.5771 26.6807 28.625 26.6807 28.6797C26.6943 28.7344 26.7012 28.7686 26.7012 28.7822C26.7012 28.8506 26.6875 28.9395 26.6602 29.0488C26.6328 29.1445 26.6191 29.2061 26.6191 29.2334C26.4688 29.7256 26.1611 30.0879 25.6963 30.3203C24.9717 30.7988 24.5889 31.3047 24.5479 31.8379C24.5342 32.0156 24.5342 32.1729 24.5479 32.3096C24.6025 32.5693 24.7256 32.8564 24.917 33.1709C25.1631 33.5264 25.3408 33.7588 25.4502 33.8682C25.792 34.21 25.9971 34.4082 26.0654 34.4629C26.3389 34.709 26.6807 35.0781 27.0908 35.5703C28.2803 36.9922 28.8203 38.4482 28.7109 39.9385C28.6699 40.5947 28.5127 41.2305 28.2393 41.8457C27.9795 42.4609 27.6719 42.9668 27.3164 43.3633C26.9609 43.7734 26.667 44.0879 26.4346 44.3066C26.2021 44.5254 26.0176 44.6758 25.8809 44.7578L25.6143 44.9424C25.3818 45.0244 25.2314 45.0723 25.1631 45.0859C24.917 45.1133 24.7734 45.127 24.7324 45.127H24.6709C24.4932 45.127 24.3564 45.1133 24.2607 45.0859C24.2197 45.0859 24.1582 45.0723 24.0762 45.0449C24.0078 45.0312 23.96 45.0244 23.9326 45.0244C23.9189 45.0244 23.8984 45.0176 23.8711 45.0039C23.8438 44.9902 23.8164 44.9697 23.7891 44.9424C23.7617 44.9287 23.7412 44.9219 23.7275 44.9219C23.3994 44.6895 23.208 44.5391 23.1533 44.4707C22.8115 44.0742 22.6748 43.6367 22.7432 43.1582C22.8115 42.6934 23.0576 42.3105 23.4814 42.0098L23.543 41.9277C23.5977 41.8867 23.6592 41.8252 23.7275 41.7432C23.8096 41.6748 23.8984 41.5928 23.9941 41.4971C24.0898 41.4014 24.1787 41.2852 24.2607 41.1484C24.3564 41.0117 24.4453 40.8682 24.5273 40.7178C24.6094 40.5811 24.6709 40.4238 24.7119 40.2461C24.7666 40.0684 24.8008 39.8906 24.8145 39.7129C24.8418 38.8379 24.3359 37.915 23.2969 36.9443C22.8867 36.5752 22.5654 36.2607 22.333 36.001C21.1162 34.5654 20.5557 33.1436 20.6514 31.7354ZM21.8408 7.33105V2.79883C21.8408 2.26562 22.0254 1.81445 22.3945 1.44531C22.7773 1.07617 23.2285 0.891602 23.748 0.891602C24.2812 0.891602 24.7324 1.07617 25.1016 1.44531C25.4707 1.81445 25.6553 2.26562 25.6553 2.79883V7.33105C25.6553 7.85059 25.4707 8.28125 25.1016 8.62305C24.7324 8.96484 24.2812 9.13574 23.748 9.13574C23.2285 9.13574 22.7773 8.96484 22.3945 8.62305C22.0254 8.28125 21.8408 7.85059 21.8408 7.33105ZM29.1826 31.4277C29.2373 30.9492 29.3809 30.4844 29.6133 30.0332C29.8457 29.5684 30.0986 29.1787 30.3721 28.8643C30.6592 28.5498 30.9326 28.2764 31.1924 28.0439C31.4658 27.7979 31.6914 27.6133 31.8691 27.4902L32.1562 27.3262C32.2109 27.2852 32.2861 27.2305 32.3818 27.1621C32.6279 27.0664 32.9014 27.0186 33.2021 27.0186C33.9404 27.0186 34.501 27.2988 34.8838 27.8594C34.9932 28.0098 35.0684 28.1738 35.1094 28.3516C35.1367 28.4062 35.1504 28.4678 35.1504 28.5361V28.7822C35.1504 29.4658 34.8223 29.9785 34.166 30.3203C33.4688 30.7852 33.0859 31.291 33.0176 31.8379C32.9355 32.5762 33.4346 33.4512 34.5146 34.4629C36.4287 36.1582 37.3242 37.9834 37.2012 39.9385C37.1602 40.5947 37.0029 41.2236 36.7295 41.8252C36.4697 42.4404 36.1553 42.9531 35.7861 43.3633C35.4307 43.7871 35.1436 44.1016 34.9248 44.3066C34.7197 44.5117 34.542 44.6621 34.3916 44.7578C34.0361 44.9766 33.7354 45.0928 33.4893 45.1064C33.4209 45.1201 33.3115 45.127 33.1611 45.127C32.5049 45.127 31.999 44.9082 31.6436 44.4707C31.3154 44.0879 31.1787 43.6572 31.2334 43.1787C31.2881 42.7002 31.5205 42.3105 31.9307 42.0098C31.999 41.9824 32.1289 41.8799 32.3203 41.7021C32.5117 41.5244 32.7168 41.2441 32.9355 40.8613C33.168 40.4785 33.2979 40.0957 33.3252 39.7129C33.3662 38.8379 32.8535 37.915 31.7871 36.9443C30.8848 36.1514 30.2012 35.3037 29.7363 34.4014C29.2441 33.4443 29.0596 32.4531 29.1826 31.4277ZM34.1865 12.335C34.1865 11.7881 34.3506 11.3506 34.6787 11.0225L37.8779 7.78223C38.2744 7.41309 38.7188 7.22852 39.2109 7.22852C39.7305 7.22852 40.1748 7.41992 40.5439 7.80273C40.9268 8.17188 41.1182 8.61621 41.1182 9.13574C41.1182 9.68262 40.9268 10.1338 40.5439 10.4893L37.3037 13.6475C36.9072 14.0166 36.4629 14.2012 35.9707 14.2012C35.4648 14.2012 35.041 14.0234 34.6992 13.668C34.3574 13.2988 34.1865 12.8545 34.1865 12.335ZM39.2314 24.4756C39.2314 23.9971 39.4229 23.5527 39.8057 23.1426C40.1475 22.7734 40.5713 22.5889 41.0771 22.5889H45.5889C46.1084 22.5889 46.5596 22.7803 46.9424 23.1631C47.3389 23.5322 47.5371 23.9697 47.5371 24.4756C47.5371 25.0088 47.3457 25.4668 46.9629 25.8496C46.5801 26.2188 46.1221 26.4033 45.5889 26.4033H41.0771C40.5439 26.4033 40.0996 26.2188 39.7441 25.8496C39.4023 25.4805 39.2314 25.0225 39.2314 24.4756Z" fill="white" fill-opacity="0.7"/>
</svg>
