<svg width="31" height="32" viewBox="0 0 31 32" fill="none" xmlns="http://www.w3.org/2000/svg">
<path d="M0 15.8809C0 13.7891 0.410156 11.7861 1.23047 9.87207C2.05078 7.95801 3.15137 6.31055 4.53223 4.92969C5.92676 3.53516 7.58105 2.42773 9.49512 1.60742C11.4229 0.773437 13.4326 0.356445 15.5244 0.356445H18.0264C18.3682 0.452148 18.5391 0.657227 18.5391 0.97168L18.6416 2.89941C18.7236 5.6748 19.7217 8.04004 21.6357 9.99512C23.5498 11.9502 25.874 12.9824 28.6084 13.0918L30.4131 13.2354C30.7686 13.2354 30.9463 13.4062 30.9463 13.748V15.8809C30.96 18.6836 30.2764 21.2812 28.8955 23.6738C27.5283 26.0527 25.6553 27.9395 23.2764 29.334C20.9111 30.7148 18.3271 31.4053 15.5244 31.4053C13.3916 31.4053 11.3613 30.9951 9.43359 30.1748C7.51953 29.3545 5.87207 28.2539 4.49121 26.873C3.12402 25.4785 2.03027 23.8242 1.20996 21.9102C0.40332 19.9961 0 17.9863 0 15.8809ZM3.99902 15.8809C3.99902 17.5488 4.32715 19.1211 4.9834 20.5977C5.65332 22.0742 6.52148 23.3115 7.58789 24.3096C8.66797 25.3076 9.89844 26.1006 11.2793 26.6885C12.6738 27.2627 14.0889 27.5498 15.5244 27.5498C16.7959 27.5498 18.0742 27.3037 19.3594 26.8115C20.6582 26.3057 21.8613 25.6084 22.9688 24.7197C24.0762 23.8174 25.0264 22.6689 25.8193 21.2744C26.626 19.8799 27.1455 18.3555 27.3779 16.7012C23.8096 15.9629 20.9453 14.4385 18.7852 12.1279C16.6387 9.80371 15.4014 7.07617 15.0732 3.94531C13.0088 4.05469 11.1152 4.69043 9.39258 5.85254C7.68359 7.01465 6.35742 8.49121 5.41406 10.2822C4.4707 12.0596 3.99902 13.9258 3.99902 15.8809Z" fill="white" fill-opacity="0.7"/>
</svg>
