<svg width="49" height="42" viewBox="0 0 49 42" fill="none" xmlns="http://www.w3.org/2000/svg">
<path d="M0 16.7432C0 14.7197 0.628906 12.9082 1.88672 11.3086C3.1582 9.70898 4.75781 8.69043 6.68555 8.25293C7.24609 5.84668 8.4834 3.87109 10.3975 2.32617C12.3252 0.78125 14.5264 0.00878906 17.001 0.00878906C19.4072 0.00878906 21.5537 0.767578 23.4404 2.28516C25.3408 3.78906 26.5713 5.7168 27.1318 8.06836H27.7061C30.1123 8.06836 32.1631 8.91602 33.8584 10.6113C35.5674 12.293 36.4219 14.3369 36.4219 16.7432C36.4219 16.7568 36.415 16.7842 36.4014 16.8252C36.4014 16.8662 36.4014 16.9072 36.4014 16.9482C38.042 18.6982 38.8623 20.7764 38.8623 23.1826C38.8623 24.8369 38.4453 26.375 37.6113 27.7969C36.791 29.2051 35.6768 30.3193 34.2686 31.1396C32.874 31.96 31.3564 32.3701 29.7158 32.3701C27.6104 32.3701 25.7373 31.7207 24.0967 30.4219C22.4697 29.123 21.3965 27.4756 20.877 25.4795H8.3877C6.0498 25.3838 4.06738 24.4951 2.44043 22.8135C0.813477 21.1182 0 19.0947 0 16.7432ZM2.97363 16.7432C2.97363 18.2744 3.5 19.6074 4.55273 20.7422C5.61914 21.8633 6.89746 22.458 8.3877 22.5264H20.7949C20.877 22.4717 20.959 22.4443 21.041 22.4443H23.1738C23.2422 22.4443 23.3037 22.4717 23.3584 22.5264H28.0547C29.5449 22.458 30.8232 21.8633 31.8896 20.7422C32.9561 19.6074 33.4893 18.2744 33.4893 16.7432C33.4893 15.1982 32.915 13.8652 31.7666 12.7441C30.6182 11.6094 29.2646 11.042 27.7061 11.042H24.876C24.6709 11.042 24.5684 10.9395 24.5684 10.7344L24.4248 9.70898C24.2334 7.80859 23.4199 6.21582 21.9844 4.93066C20.5488 3.63184 18.8877 2.98242 17.001 2.98242C15.0596 2.98242 13.3779 3.625 11.9561 4.91016C10.5342 6.19531 9.72754 7.79492 9.53613 9.70898L9.41309 10.7344C9.41309 10.9395 9.29688 11.042 9.06445 11.042H8.18262C6.70605 11.2061 5.46875 11.8281 4.4707 12.9082C3.47266 13.9883 2.97363 15.2666 2.97363 16.7432ZM16.5293 36.4512C15.9824 35.7402 15.9824 35.0293 16.5293 34.3184L19.0107 31.7959C19.3115 31.5361 19.6875 31.4062 20.1387 31.4062C20.5488 31.4062 20.8838 31.5361 21.1436 31.7959C21.4033 32.0557 21.5332 32.3975 21.5332 32.8213C21.5332 33.2588 21.4033 33.6074 21.1436 33.8672L18.6416 36.4512C18.3682 36.7246 18.0127 36.8613 17.5752 36.8613C17.1514 36.8613 16.8027 36.7246 16.5293 36.4512ZM23.9531 25.4795C24.418 26.6553 25.1699 27.6055 26.209 28.3301C27.2617 29.0547 28.4307 29.417 29.7158 29.417C31.4111 29.417 32.8467 28.8086 34.0225 27.5918C35.2119 26.375 35.8066 24.9053 35.8066 23.1826C35.8066 22.335 35.6699 21.5693 35.3965 20.8857C34.6719 22.2256 33.6533 23.3125 32.3408 24.1465C31.042 24.9805 29.6133 25.4248 28.0547 25.4795H23.9531ZM28.2188 36.8203C28.2188 36.4102 28.3623 36.0684 28.6494 35.7949C28.9502 35.5215 29.3057 35.3848 29.7158 35.3848C30.1123 35.3848 30.4746 35.5352 30.8027 35.8359C31.0762 36.1094 31.2129 36.4375 31.2129 36.8203V40.4092C31.2129 40.8193 31.0625 41.1748 30.7617 41.4756C30.4746 41.7764 30.126 41.9268 29.7158 41.9268C29.3057 41.9268 28.9502 41.7764 28.6494 41.4756C28.3623 41.1748 28.2188 40.8193 28.2188 40.4092V36.8203ZM37.8574 32.8213C37.8574 32.4248 37.9941 32.0898 38.2676 31.8164C38.5547 31.543 38.9033 31.4062 39.3135 31.4062C39.7373 31.4062 40.0791 31.5361 40.3389 31.7959L42.9229 34.3184C43.21 34.6328 43.3535 34.9814 43.3535 35.3643C43.3535 35.7744 43.2031 36.123 42.9023 36.4102C42.6152 36.7109 42.2598 36.8613 41.8359 36.8613C41.3848 36.8613 41.0225 36.7246 40.749 36.4512L38.2676 33.8672C37.9941 33.5527 37.8574 33.2041 37.8574 32.8213ZM38.2676 14.6104C37.9941 14.3232 37.8574 13.9678 37.8574 13.5439C37.8574 13.1201 37.9941 12.7783 38.2676 12.5186L40.749 9.93457C41.0498 9.66113 41.4121 9.52441 41.8359 9.52441C42.2461 9.52441 42.6084 9.66113 42.9229 9.93457C43.21 10.2627 43.3535 10.6318 43.3535 11.042C43.3535 11.4248 43.21 11.7734 42.9229 12.0879L40.3389 14.6104C40.0654 14.8838 39.7236 15.0205 39.3135 15.0205C38.9033 15.0205 38.5547 14.8838 38.2676 14.6104ZM41.8359 23.1826C41.8359 22.7725 41.9727 22.4238 42.2461 22.1367C42.5195 21.8496 42.8613 21.7061 43.2715 21.7061H46.8193C47.2432 21.7061 47.6055 21.8496 47.9062 22.1367C48.207 22.4238 48.3574 22.7725 48.3574 23.1826C48.3574 23.6064 48.207 23.9688 47.9062 24.2695C47.6055 24.5566 47.2432 24.7002 46.8193 24.7002H43.2715C42.8613 24.7002 42.5195 24.5566 42.2461 24.2695C41.9727 23.9688 41.8359 23.6064 41.8359 23.1826Z" fill="white" fill-opacity="0.7"/>
</svg>
