<svg width="26" height="26" viewBox="0 0 26 26" fill="none" xmlns="http://www.w3.org/2000/svg">
<path d="M16.804 3.03225C16.4197 2.64875 15.9103 2.4375 15.3675 2.4375C14.8248 2.4375 14.3154 2.64875 13.9294 3.03306L12.7838 4.18031C12.3995 4.56381 12.1874 5.07406 12.1874 5.61763C12.1874 6.00031 12.2922 6.36675 12.4889 6.68444L1.45754 11.1036C0.719793 11.4278 0.190856 12.0932 0.0421681 12.8822C-0.108144 13.676 0.143731 14.4901 0.719793 15.0654L11.0548 25.2866C11.5 25.7319 12.0915 25.9846 12.7164 25.9992C12.731 26 12.7651 26 12.7797 26C12.9439 26 13.1104 25.9829 13.2754 25.9496C14.083 25.7822 14.7444 25.2241 15.0442 24.4644L19.3845 13.5964C19.7112 13.8117 20.0955 13.9271 20.4952 13.9271C21.0396 13.9271 21.549 13.715 21.9317 13.3315L23.0749 12.1875C23.4625 11.8024 23.6745 11.2913 23.6745 10.7469C23.6745 10.2026 23.4617 9.69069 23.0798 9.31044L16.804 3.03225ZM13.5354 23.8607C13.4346 24.115 13.2128 24.3027 12.9447 24.3579C12.8829 24.3709 12.8204 24.3758 12.7586 24.375C12.5522 24.3701 12.3532 24.2873 12.2045 24.1378L1.86298 13.91C1.67286 13.7207 1.58917 13.4493 1.63954 13.1844C1.68911 12.9212 1.86623 12.6986 2.11242 12.5913L7.16373 10.5682C10.5673 11.7 13.9717 10.6096 17.3769 14.2423L13.5354 23.8607ZM21.9309 11.0337L20.782 12.1818C20.6236 12.3411 20.366 12.3411 20.2076 12.1818L18.7711 10.7461L17.6076 13.6622L17.7043 13.416C15.2587 10.9744 12.7732 10.6665 10.5307 10.3911C9.81004 10.3025 9.11129 10.2099 8.42473 10.062L15.3237 7.29869L13.9302 5.90525C13.7718 5.74681 13.7718 5.48925 13.9302 5.33081L15.0791 4.18112C15.2375 4.02269 15.4951 4.02269 15.6535 4.18112L21.9301 10.4593C22.091 10.6178 22.091 10.8753 21.9309 11.0337ZM13.4062 17.0625C14.5258 17.0625 15.4374 16.1517 15.4374 15.0312C15.4374 13.9108 14.5266 13 13.4062 13C12.2857 13 11.3749 13.9108 11.3749 15.0312C11.3749 16.1517 12.2865 17.0625 13.4062 17.0625ZM13.4062 13.8125C14.0789 13.8125 14.6249 14.3585 14.6249 15.0312C14.6249 15.704 14.0789 16.25 13.4062 16.25C12.7326 16.25 12.1874 15.704 12.1874 15.0312C12.1874 14.3585 12.7326 13.8125 13.4062 13.8125ZM23.9687 0C22.8482 0 21.9374 0.910813 21.9374 2.03125C21.9374 3.15169 22.8482 4.0625 23.9687 4.0625C25.0891 4.0625 25.9999 3.15169 25.9999 2.03125C25.9999 0.910813 25.0891 0 23.9687 0ZM23.9687 3.25C23.2959 3.25 22.7499 2.704 22.7499 2.03125C22.7499 1.3585 23.2959 0.8125 23.9687 0.8125C24.6414 0.8125 25.1874 1.3585 25.1874 2.03125C25.1874 2.704 24.6414 3.25 23.9687 3.25ZM6.49992 13.8125C6.49992 14.7087 7.22873 15.4375 8.12492 15.4375C9.0211 15.4375 9.74992 14.7087 9.74992 13.8125C9.74992 12.9163 9.0211 12.1875 8.12492 12.1875C7.22873 12.1875 6.49992 12.9163 6.49992 13.8125ZM8.12492 13C8.57342 13 8.93742 13.3632 8.93742 13.8125C8.93742 14.2618 8.57342 14.625 8.12492 14.625C7.67642 14.625 7.31242 14.2618 7.31242 13.8125C7.31242 13.3632 7.67642 13 8.12492 13ZM9.74992 18.6875C9.74992 18.239 10.1139 17.875 10.5624 17.875C11.0109 17.875 11.3749 18.239 11.3749 18.6875C11.3749 19.136 11.0109 19.5 10.5624 19.5C10.1139 19.5 9.74992 19.136 9.74992 18.6875ZM22.7499 6.5C22.7499 6.0515 23.1139 5.6875 23.5624 5.6875C24.0109 5.6875 24.3749 6.0515 24.3749 6.5C24.3749 6.9485 24.0109 7.3125 23.5624 7.3125C23.1139 7.3125 22.7499 6.9485 22.7499 6.5Z" fill="#4F4F4F"/>
</svg>
