<svg width="26" height="26" viewBox="0 0 26 26" fill="none" xmlns="http://www.w3.org/2000/svg">
<path d="M21.9375 4.05925L4.0625 4.0625C3.61319 4.0625 3.25 4.42244 3.25 4.87175V16.2467C3.25 16.6961 3.61319 17.0592 4.0625 17.0592H21.9375C22.3868 17.0592 22.75 16.6961 22.75 16.2467V4.87175C22.75 4.42244 22.3868 4.05925 21.9375 4.05925ZM21.9375 16.25H4.0625V4.87175H21.9375V16.25ZM23.5625 0.8125H2.4375C1.09119 0.8125 0 1.90287 0 3.25V19.5C0 20.8439 1.08713 21.9326 2.42937 21.9359H10.5625V22.9247L5.49087 23.5836C5.1285 23.6738 4.875 23.9988 4.875 24.3717C4.875 24.8211 5.23819 25.1842 5.6875 25.1842H20.3125C20.7618 25.1842 21.125 24.8211 21.125 24.3717C21.125 23.9988 20.8715 23.6738 20.5091 23.5828L15.4375 22.9247V21.9359H23.5706C24.9129 21.9326 26 20.8439 26 19.5V3.25C26 1.90287 24.908 0.8125 23.5625 0.8125ZM24.375 19.5C24.375 19.9477 24.0102 20.3125 23.5625 20.3125H2.4375C1.989 20.3125 1.625 19.9477 1.625 19.5V3.25C1.625 2.8015 1.989 2.4375 2.4375 2.4375H23.5625C24.0102 2.4375 24.375 2.8015 24.375 3.25V19.5Z" fill="#4F4F4F"/>
</svg>
