<svg width="26" height="26" viewBox="0 0 26 26" fill="none" xmlns="http://www.w3.org/2000/svg">
<path d="M13 16.25C13 15.3522 13.7272 14.625 14.625 14.625C15.5228 14.625 16.25 15.3522 16.25 16.25C16.25 17.1478 15.5228 17.875 14.625 17.875C13.7272 17.875 13 17.1478 13 16.25ZM23.5633 10.5625C23.5625 10.5625 23.5625 10.5625 23.5633 10.5625L23.5625 5.6875V3.25C23.5625 1.90369 22.4705 0.8125 21.125 0.8125H4.46875C2.00444 0.8125 0 2.81775 0 5.28125V21.5312C0 23.9948 2.00444 26 4.46875 26H19.0938C21.5573 26 23.5625 23.9948 23.5625 21.5312V20.3125C23.5625 20.3125 23.5625 20.3125 23.5633 20.3125C26.8117 17.8742 26.8117 13.0008 23.5633 10.5625ZM4.46875 2.4375H21.125C21.5727 2.4375 21.9375 2.8015 21.9375 3.25V8.2745C21.6824 8.1835 21.411 8.125 21.125 8.125H21.1242V4.0625C21.1242 3.61319 20.7602 3.25 20.3117 3.25H3.24919C2.80069 3.25 2.43669 3.61319 2.43669 4.0625V7.26619C1.93538 6.7535 1.625 6.05475 1.625 5.28125C1.625 3.71069 2.89738 2.4375 4.46875 2.4375ZM20.3117 4.875H3.24919V4.0625H20.3117V4.875ZM20.3117 5.6875V6.5H3.24919V5.6875H20.3117ZM20.3117 7.3125V8.125H4.46875C4.03 8.125 3.6205 8.01775 3.25 7.84062V7.3125H20.3117ZM21.9375 21.5312C21.9375 23.1018 20.6643 24.375 19.0938 24.375H4.46875C2.89738 24.375 1.625 23.1018 1.625 21.5312V8.72544C2.39769 9.36487 3.38894 9.75 4.46875 9.75H21.125C21.5727 9.75 21.9375 10.114 21.9375 10.5625V12.1875H14.625C12.3809 12.1875 10.5625 14.0059 10.5625 16.25C10.5625 18.4941 12.3817 20.3125 14.625 20.3125H21.9375V21.5312ZM22.9751 18.6875H14.625C13.2811 18.6875 12.1875 17.5939 12.1875 16.25C12.1875 14.9061 13.2811 13.8125 14.625 13.8125H21.9375C22.4388 13.806 22.9361 13.5631 23.2391 13.1592C23.3236 13.0455 23.3894 12.9179 23.4422 12.7847C23.4496 12.7668 23.4626 12.753 23.4691 12.7343C24.0532 13.5005 24.375 14.4397 24.375 15.4375C24.375 16.6871 23.8704 17.8466 22.9751 18.6875Z" fill="#4F4F4F"/>
</svg>
