<svg width="26" height="26" viewBox="0 0 26 26" fill="none" xmlns="http://www.w3.org/2000/svg">
<path d="M23.8834 2.09625C22.5469 0.761312 20.787 0 19.0523 0C17.589 0 16.2419 0.54275 15.2579 1.52506L11.3035 5.50956C11.2913 5.52094 11.2775 5.52825 11.2653 5.54044C11.2588 5.54694 11.2548 5.55587 11.2483 5.56156L11.2499 5.56319L2.85756 14.0205C2.47081 14.4048 2.1905 14.8834 2.0345 15.4058L0.125938 22.3186C0.124312 22.3372 0 22.88 0 23.1562C0 24.726 1.27481 26 2.847 26C3.15981 26 3.76512 25.8505 3.78706 25.8472L10.6754 24.0362C11.1987 23.881 11.674 23.5982 12.0608 23.2107L24.4619 10.712C26.7174 8.45487 26.4631 4.67188 23.8834 2.09625ZM13.0114 19.3334C12.9447 18.6006 12.7376 17.8815 12.4272 17.199L20.1094 9.51762C20.579 11.0012 20.3377 12.5531 19.3083 13.5834C19.3018 13.5899 19.2936 13.5939 19.2879 13.6004L19.2993 13.611L13.0203 19.9404C13.0203 19.7381 13.0301 19.5398 13.0114 19.3334ZM12.0193 16.458C11.7163 15.9599 11.3717 15.4789 10.9452 15.0532C10.4487 14.5568 9.87919 14.1676 9.28444 13.8409L17.0292 6.09619C17.6369 6.36594 18.2195 6.75025 18.7338 7.26456C19.1734 7.7025 19.513 8.19325 19.7746 8.7035L12.0193 16.458ZM8.51987 13.4566C7.7675 13.1536 6.97937 12.9805 6.18962 12.9699L12.4483 6.66331C13.4062 5.72894 14.8013 5.46 16.1753 5.80044L8.51987 13.4566ZM3.38569 24.2718C3.29712 24.2921 3.02169 24.362 2.83481 24.375C2.16694 24.3669 1.625 23.8241 1.625 23.1562C1.63475 23.0198 1.68919 22.7849 1.70788 22.6996L2.56344 19.6007C3.49213 19.5756 4.4915 19.9371 5.27719 20.7244C6.07506 21.5207 6.45044 22.5396 6.40981 23.4796L3.38569 24.2718ZM7.21012 23.2676C7.19062 22.1772 6.747 21.0429 5.85162 20.1492C5.005 19.3018 3.89675 18.8126 2.79175 18.7688L3.601 15.8381C3.6595 15.6431 3.77569 15.4505 3.91869 15.2823C5.54856 14.1156 8.05513 14.4601 9.79631 16.2029C11.6383 18.044 11.9226 20.7415 10.504 22.3519C10.4097 22.4014 10.3147 22.4486 10.2123 22.4786L7.21012 23.2676ZM23.3114 9.56475L21.9432 10.9436C21.9432 10.7599 21.9651 10.5836 21.9481 10.3959C21.8051 8.82375 21.0722 7.30356 19.8819 6.11487C18.5583 4.7905 16.8033 4.03081 15.0654 4.02594L16.4109 2.66906C17.0844 1.99713 18.0245 1.625 19.0523 1.625C20.3596 1.625 21.7027 2.2165 22.7354 3.24594C23.7047 4.21362 24.2824 5.41613 24.3653 6.63244C24.4416 7.7675 24.0671 8.80831 23.3114 9.56475Z" fill="#4F4F4F"/>
</svg>
