<svg width="26" height="18" viewBox="0 0 26 18" fill="none" xmlns="http://www.w3.org/2000/svg">
<path d="M25.9716 8.818C25.9634 8.78387 25.9683 8.74731 25.9553 8.714C25.9504 8.70019 25.9383 8.69287 25.9334 8.67987C25.9253 8.66037 25.9269 8.63844 25.9163 8.61975C23.5601 4.10956 18.4308 0.87825 13.0195 0.87825C7.60745 0.87825 2.47895 4.10469 0.121072 8.61406C0.110509 8.63275 0.112134 8.65469 0.104009 8.67419C0.0983215 8.68719 0.0869465 8.6945 0.0820715 8.70831C0.0690715 8.74162 0.0739465 8.77819 0.0658215 8.81231C0.0511965 8.87325 0.037384 8.93175 0.037384 8.99431C0.037384 9.05688 0.052009 9.11456 0.0658215 9.17631C0.0739465 9.21044 0.0690715 9.247 0.0820715 9.28031C0.0869465 9.29412 0.099134 9.30144 0.104009 9.31444C0.112134 9.33394 0.110509 9.35588 0.121072 9.37456C2.47813 13.8847 7.60745 17.1161 13.0195 17.1161C18.4308 17.1161 23.5601 13.8896 25.9163 9.38025C25.9277 9.36156 25.9261 9.33962 25.9334 9.32012C25.9383 9.30712 25.9504 9.29981 25.9553 9.286C25.9683 9.25269 25.9634 9.21613 25.9716 9.182C25.9854 9.12025 26 9.06175 26 9C26 8.93825 25.9854 8.87894 25.9716 8.818ZM13.0187 15.4902C8.45651 15.4902 3.9902 12.8976 1.76476 8.99431C4.00238 5.08619 8.4622 2.50244 13.0187 2.50244C17.5793 2.50244 22.0464 5.09594 24.2718 8.99837C22.0342 12.9073 17.5752 15.4902 13.0187 15.4902ZM13.0187 5.74919C13.2429 5.74919 13.4233 5.93037 13.4233 6.15544C13.4233 6.37887 13.2421 6.56087 13.0187 6.56087V6.56169C11.6748 6.56169 10.582 7.6545 10.582 8.99675C10.582 9.221 10.4 9.403 10.1766 9.403C9.95313 9.403 9.77032 9.221 9.77032 8.99675C9.77032 7.20519 11.2223 5.75325 13.0138 5.75C13.0154 5.75 13.0171 5.74919 13.0187 5.74919ZM13 3.3125C9.85807 3.3125 7.31251 5.85888 7.31251 9C7.31251 12.1411 9.85888 14.6875 13 14.6875C16.1403 14.6875 18.6875 12.1403 18.6875 9C18.6875 5.85806 16.1403 3.3125 13 3.3125ZM13 13.875C10.3114 13.875 8.12501 11.6886 8.12501 9C8.12501 6.31144 10.3114 4.125 13 4.125C15.6886 4.125 17.875 6.31144 17.875 9C17.875 11.6886 15.6886 13.875 13 13.875Z" fill="#4F4F4F"/>
</svg>
