<svg width="26" height="24" viewBox="0 0 26 24" fill="none" xmlns="http://www.w3.org/2000/svg">
<path d="M25.9382 13.9947L22.6866 1.80231C22.49 1.10925 21.8473 0.625 21.125 0.625H4.875C4.15188 0.625 3.51 1.10925 3.31337 1.80231L0.06175 13.9947C0.0203125 14.1426 0 14.2913 0 14.4375V20.125C0 21.9198 1.45519 23.375 3.25 23.375H22.75C24.5448 23.375 26 21.9198 26 20.125V14.4375C26 14.2913 25.9797 14.1426 25.9382 13.9947ZM24.375 20.125C24.375 21.0204 23.6454 21.75 22.75 21.75H3.25C2.35381 21.75 1.625 21.0204 1.625 20.125V14.4375L4.87581 2.24919H21.1234L24.375 14.4375V20.125ZM19.2904 3.875H6.70963C6.34156 3.875 6.019 4.12281 5.92394 4.47869L3.12488 14.2287C3.06069 14.4733 3.11188 14.7333 3.26625 14.9331C3.42062 15.133 3.65787 15.25 3.90975 15.25H7.62125L8.79694 17.6022C9.07319 18.1523 9.63544 18.5 10.2513 18.5H15.7487C16.3646 18.5 16.926 18.1523 17.2023 17.6022L18.3779 15.25H22.0894C22.3421 15.25 22.5802 15.1322 22.7337 14.9323C22.8873 14.7324 22.9385 14.4724 22.8751 14.2279L20.0761 4.47787C19.981 4.122 19.6584 3.875 19.2904 3.875ZM19.7283 13.625H18.3779C17.7588 13.625 17.2022 13.9679 16.9244 14.5228L15.7487 16.875H10.2513L9.07563 14.5228C8.79775 13.9679 8.24119 13.625 7.62206 13.625H4.33388L6.70963 4.6875H19.2904L21.6661 13.625H19.7283Z" fill="#4F4F4F"/>
</svg>
