<svg width="26" height="26" viewBox="0 0 26 26" fill="none" xmlns="http://www.w3.org/2000/svg">
<path d="M25.9033 10.2026C25.6782 9.55338 25.1006 9.07806 24.4051 8.97487L17.6402 7.969L14.6997 1.86387C14.3902 1.22281 13.728 0.8125 13 0.8125C12.272 0.8125 11.6098 1.22281 11.3002 1.86387L8.35981 7.969L1.59412 8.97487C0.899436 9.07806 0.321748 9.55338 0.097498 10.2026C-0.125939 10.8534 0.0430606 11.57 0.53381 12.0591L5.49168 17.0089L4.342 23.8753C4.225 24.5667 4.52481 25.2606 5.11225 25.6652C5.43481 25.8871 5.81425 26 6.19369 26C6.50569 26 6.8185 25.9236 7.10206 25.7717L13 22.5964L18.8987 25.7717C19.1823 25.9236 19.4951 26 19.8063 26C20.1857 26 20.5652 25.8871 20.8886 25.6652C21.476 25.2606 21.7742 24.5667 21.658 23.8753L20.5075 17.0089L25.467 12.0591C25.9569 11.5692 26.1251 10.8526 25.9033 10.2026ZM19.1652 15.7324C18.7492 16.1468 18.5607 16.731 18.6558 17.3038L19.8063 24.1702L13.9076 20.9966C13.6248 20.8439 13.3128 20.7683 12.9992 20.7683C12.6872 20.7683 12.3744 20.8447 12.0916 20.9966L6.19287 24.1702L7.34337 17.3038C7.43925 16.731 7.25075 16.1468 6.83475 15.7324L1.87687 10.7827L8.64175 9.77519C9.26006 9.68338 9.79225 9.29662 10.0579 8.74494L13 2.64144L15.9412 8.74575C16.2077 9.29744 16.7391 9.68337 17.3566 9.776L24.1231 10.7835L19.1652 15.7324Z" fill="#4F4F4F"/>
</svg>
