<svg width="26" height="24" viewBox="0 0 26 24" fill="none" xmlns="http://www.w3.org/2000/svg">
<path d="M26 5.5C26 4.35763 25.2224 3.381 24.1101 3.12425L13.5371 0.684312C13.3599 0.6445 13.1796 0.625 13 0.625C12.8204 0.625 12.6401 0.6445 12.4516 0.68675L1.88987 3.12425C0.77675 3.381 0 4.35763 0 5.5C0 6.64237 0.777562 7.619 1.88906 7.87575L4.0625 8.37706V15.25C4.0625 17.4064 6.53088 19.3125 13 19.3125C19.4691 19.3125 21.9375 17.4064 21.9375 15.25V8.37706L24.1101 7.87575C25.2224 7.619 26 6.64237 26 5.5ZM20.3125 15.25C20.3125 16.1478 17.875 17.6875 13 17.6875C8.125 17.6875 5.6875 16.1478 5.6875 15.25V8.75244L12.4621 10.3157C12.6392 10.3555 12.8204 10.375 13 10.375C13.1796 10.375 13.3608 10.3555 13.5476 10.3132L20.3125 8.75244V15.25ZM13.1828 8.72969C13.1219 8.74269 13.0609 8.75 13 8.75C12.9391 8.75 12.8773 8.74269 12.8172 8.72969L2.25469 6.29219C1.88581 6.20688 1.625 5.87862 1.625 5.5C1.625 5.12138 1.88581 4.79313 2.25469 4.70781L12.8172 2.27031C12.8773 2.25731 12.9382 2.25 13 2.25C13.0618 2.25 13.1227 2.25731 13.1828 2.27031L23.7453 4.70781C24.1134 4.79313 24.375 5.12138 24.375 5.5C24.375 5.87862 24.1134 6.20688 23.7453 6.29219L13.1828 8.72969ZM23.5625 9.5625C23.5625 9.11319 23.9257 8.75 24.375 8.75C24.8235 8.75 25.1875 9.11319 25.1875 9.5625V16.875C25.1875 17.3243 24.8235 17.6875 24.375 17.6875C23.9257 17.6875 23.5625 17.3243 23.5625 16.875V9.5625ZM24.375 18.5C25.272 18.5 26 20.853 26 21.75C26 22.647 25.272 23.375 24.375 23.375C23.4772 23.375 22.75 22.647 22.75 21.75C22.75 20.853 23.4772 18.5 24.375 18.5Z" fill="#4F4F4F"/>
</svg>
