<svg width="26" height="26" viewBox="0 0 26 26" fill="none" xmlns="http://www.w3.org/2000/svg">
<path d="M10.5625 7.215V8.58812H25.9858C25.9642 8.14531 25.9179 7.5855 25.7522 7.215" fill="#EC1C24"/>
<path d="M25.025 5.84189H10.5625V7.21501H25.7522C25.5872 6.70273 25.3419 6.23554 25.025 5.84189Z" fill="#E6E7E8"/>
<path d="M21.9375 4.46875H10.5625V5.84188H25.025C24.347 4.99281 23.231 4.46875 21.9375 4.46875Z" fill="#EC1C24"/>
<path d="M25.9858 8.58813H10.5625V9.96126H26V9.04598C26 8.96432 25.9947 8.8847 25.9923 8.80467C25.9907 8.78273 25.9882 8.72626 25.9858 8.58813Z" fill="#E6E7E8"/>
<path d="M10.5625 11.3344H26V9.96124H10.5625V11.3344Z" fill="#EC1C24"/>
<path d="M10.5625 12.7075H26V11.3344H10.5625V12.7075Z" fill="#E6E7E8"/>
<path d="M10.5625 12.7075H26V14.0806H10.5625V12.7075Z" fill="#EC1C24"/>
<path d="M0 14.0806V15.4538H26V14.0806H10.5625H0Z" fill="#E6E7E8"/>
<path d="M0 15.4537H26V16.8269H0V15.4537Z" fill="#EC1C24"/>
<path d="M0.00203125 17.6715C0.00203125 17.6715 -0.001625 18.0042 0.008125 18.2H25.9919C26.0033 17.9993 25.998 17.6715 25.998 17.6715L26 16.8269H0L0.00203125 17.6715Z" fill="#E6E7E8"/>
<path d="M4.06247 22.3438H21.9375C23.2346 22.3438 24.3128 21.8725 25.0493 20.9463H0.946533C1.70703 21.8928 2.80553 22.3438 4.06044 22.3438" fill="#EC1C24"/>
<path d="M0.948601 20.9462H25.0514C25.3727 20.538 25.6127 20.0718 25.7583 19.5731H0.245789C0.394109 20.0704 0.633072 20.5359 0.950632 20.9462" fill="#E6E7E8"/>
<path d="M0.243743 19.5731H25.7562C25.8893 19.1265 25.9684 18.6655 25.9919 18.2H0.00811768C0.0483364 18.6696 0.0857114 19.0243 0.243743 19.5731Z" fill="#EC1C24"/>
<path d="M10.5625 4.46875H4.0625C1.37028 4.46875 0 6.46953 0 8.9375V14.0806H10.5625V4.46875Z" fill="#176496"/>
<path d="M1.13671 6.8965L1.35771 6.72669L1.57831 6.8965L1.49259 6.6235L1.71237 6.45653H1.44099L1.3569 6.18231L1.27321 6.45653H1.00224L1.22284 6.6235L1.13671 6.8965ZM2.59678 6.8965L2.81778 6.72669L3.03837 6.8965L2.95306 6.6235L3.17243 6.45653H2.90146L2.81737 6.18231L2.73368 6.45653H2.4619L2.68249 6.6235L2.59678 6.8965ZM4.20756 6.8965L4.42815 6.72669L4.64915 6.8965L4.56343 6.6235L4.78281 6.45653H4.51346L4.42815 6.18231L4.34406 6.45653H4.07471L4.29287 6.6235L4.20756 6.8965ZM5.80656 6.8965L6.02715 6.72669L6.24815 6.8965L6.16284 6.6235L6.38221 6.45653H6.11003L6.02715 6.18231L5.94346 6.45653H5.67209L5.89228 6.6235L5.80656 6.8965ZM7.41124 6.8965L7.63224 6.72669L7.85284 6.8965L7.76753 6.6235L7.98731 6.45653H7.71553L7.63184 6.18231L7.54815 6.45653H7.27718L7.49656 6.6235L7.41124 6.8965ZM1.91387 7.60947L2.13446 7.44006L2.35506 7.60947L2.27015 7.33687L2.48953 7.16991H2.21815L2.13406 6.89609L2.05159 7.16991H1.7794L1.99918 7.33687L1.91387 7.60947ZM3.37434 7.60947L3.59493 7.44006L3.81553 7.60947L3.73021 7.33687L3.94959 7.16991H3.67659L3.59493 6.89609L3.51084 7.16991H3.23987L3.45965 7.33687L3.37434 7.60947ZM4.98512 7.60947L5.20531 7.44006L5.4259 7.60947L5.34059 7.33687L5.56037 7.16991H5.2894L5.20531 6.89609L5.12121 7.16991H4.84984L5.06962 7.33687L4.98512 7.60947ZM6.58331 7.60947L6.80431 7.44006L7.02531 7.60947L6.93878 7.33687L7.15896 7.16991H6.88799L6.8039 6.89609L6.72062 7.16991H6.44924L6.66903 7.33687L6.58331 7.60947ZM8.19003 7.60947L8.40899 7.44006L8.62959 7.60947L8.54346 7.33687L8.76365 7.16991H8.49309L8.40859 6.89609L8.32531 7.16991H8.05393L8.27371 7.33687L8.19003 7.60947ZM9.09474 6.8965L9.31534 6.72669L9.53634 6.8965L9.45062 6.6235L9.66999 6.45653H9.40065L9.31493 6.18231L9.23124 6.45653H8.95784L9.18006 6.6235L9.09474 6.8965ZM1.11518 12.6019L1.33618 12.4341L1.55678 12.6019L1.47146 12.3313L1.69084 12.1639L1.41987 12.1647L1.33537 11.8909L1.25249 12.1647L0.980713 12.1639L1.20049 12.3313L1.11518 12.6019ZM2.57565 12.6019L2.79624 12.4341L3.01724 12.6019L2.93153 12.3313L3.1509 12.1639L2.88034 12.1647L2.79584 11.8909L2.71256 12.1647L2.44159 12.1639L2.66096 12.3313L2.57565 12.6019ZM4.18643 12.6019L4.40703 12.4341L4.62803 12.6019L4.54231 12.3313L4.76168 12.1639L4.48909 12.1647L4.40662 11.8909L4.32293 12.1647L4.05196 12.1639L4.27174 12.3313L4.18643 12.6019ZM5.78543 12.6019L6.00603 12.4341L6.22662 12.6019L6.14253 12.3313L6.36068 12.1639L6.08931 12.1647L6.00562 11.8909L5.92193 12.1647L5.65096 12.1639L5.87034 12.3313L5.78543 12.6019ZM7.38971 12.6019L7.61071 12.4341L7.83171 12.6019L7.74721 12.3313L7.96537 12.1639L7.6944 12.1647L7.61031 11.8909L7.52703 12.1647L7.25565 12.1639L7.47503 12.3313L7.38971 12.6019ZM9.07321 12.6019L9.29381 12.4341L9.51481 12.6019L9.42909 12.3313L9.64887 12.1639L9.37628 12.1647L9.2934 11.8909L9.20971 12.1647L8.93753 12.1639L9.15853 12.3313L9.07321 12.6019ZM1.13671 8.32325L1.35771 8.15344L1.57831 8.32325L1.49259 8.05025L1.71237 7.88328L1.44099 7.88409L1.3569 7.60947L1.27321 7.88409L1.00224 7.88328L1.22284 8.05025L1.13671 8.32325ZM2.59678 8.32325L2.81778 8.15344L3.03837 8.32325L2.95306 8.05025L3.17243 7.88328L2.90146 7.88409L2.81737 7.60947L2.73368 7.88409L2.4619 7.88328L2.68249 8.05025L2.59678 8.32325ZM4.20756 8.32325L4.42815 8.15344L4.64915 8.32325L4.56343 8.05025L4.78281 7.88328L4.51346 7.88409L4.42815 7.60947L4.34406 7.88409L4.07471 7.88328L4.29287 8.05025L4.20756 8.32325ZM5.80656 8.32325L6.02715 8.15344L6.24815 8.32325L6.16284 8.05025L6.38221 7.88328L6.11003 7.88409L6.02715 7.60947L5.94346 7.88409L5.67209 7.88328L5.89228 8.05025L5.80656 8.32325ZM7.41124 8.32325L7.63224 8.15344L7.85284 8.32325L7.76753 8.05025L7.98731 7.88328L7.71553 7.88409L7.63184 7.60947L7.54815 7.88409L7.27718 7.88328L7.49656 8.05025L7.41124 8.32325ZM1.91387 9.03662L2.13446 8.86722L2.35506 9.03662L2.27015 8.76403L2.48953 8.59625H2.21815L2.13406 8.32325L2.05159 8.59625H1.7794L1.99918 8.76403L1.91387 9.03662ZM3.37434 9.03662L3.59493 8.86722L3.81553 9.03662L3.73021 8.76403L3.94959 8.59625H3.67659L3.59493 8.32325L3.51084 8.59625H3.23987L3.45965 8.76403L3.37434 9.03662ZM4.98512 9.03662L5.20531 8.86722L5.4259 9.03662L5.34059 8.76403L5.56037 8.59625H5.2894L5.20531 8.32325L5.12121 8.59625H4.84984L5.06962 8.76403L4.98512 9.03662ZM6.58331 9.03662L6.80431 8.86722L7.02531 9.03662L6.93878 8.76403L7.15896 8.59625H6.88799L6.8039 8.32325L6.72062 8.59625H6.44924L6.66903 8.76403L6.58331 9.03662ZM8.19003 9.03662L8.40899 8.86722L8.62959 9.03662L8.54346 8.76403L8.76365 8.59625H8.49309L8.40859 8.32325L8.32531 8.59625H8.05393L8.27371 8.76403L8.19003 9.03662ZM9.09474 8.32325L9.31534 8.15344L9.53634 8.32325L9.45062 8.05025L9.66999 7.88328L9.40065 7.88409L9.31493 7.60947L9.23124 7.88409L8.95784 7.88328L9.18006 8.05025L9.09474 8.32325ZM1.11518 9.75L1.33618 9.58059L1.55678 9.75L1.47106 9.47781L1.69084 9.31044L1.41946 9.31125L1.33537 9.03662L1.25249 9.31125L0.980713 9.31044L1.20049 9.47781L1.11518 9.75ZM2.57565 9.75L2.79624 9.58059L3.01724 9.75L2.93153 9.47781L3.1509 9.31044L2.88034 9.31125L2.79584 9.03662L2.71256 9.31125L2.44159 9.31044L2.66056 9.47781L2.57565 9.75ZM4.18643 9.75L4.40703 9.58059L4.62762 9.75L4.54231 9.47781L4.76168 9.31044L4.48909 9.31125L4.40662 9.03662L4.32293 9.31125L4.05196 9.31044L4.27174 9.47781L4.18643 9.75ZM5.78543 9.75L6.00562 9.58059L6.22662 9.75L6.14253 9.47781L6.36068 9.31044L6.08931 9.31125L6.00562 9.03662L5.92193 9.31125L5.65096 9.31044L5.87034 9.47781L5.78543 9.75ZM7.38971 9.75L7.61071 9.58059L7.83131 9.75L7.74721 9.47781L7.96537 9.31044L7.69399 9.31125L7.61031 9.03662L7.52703 9.31125L7.25565 9.31044L7.47503 9.47781L7.38971 9.75ZM1.89234 10.4634L2.11293 10.2944L2.33353 10.4634L2.24862 10.1928L2.46759 10.0246H2.19621L2.11253 9.75L2.02924 10.0246H1.75787L1.97765 10.1928L1.89234 10.4634ZM3.35281 10.4634L3.5734 10.2944L3.79399 10.4634L3.70868 10.1928L3.92806 10.0246H3.65628L3.57299 9.75L3.48931 10.0246H3.21793L3.43812 10.1928L3.35281 10.4634ZM4.96399 10.4634L5.18378 10.2944L5.40478 10.4634L5.31784 10.1928L5.53884 10.0246H5.26787L5.18378 9.75L5.10009 10.0246H4.82871L5.04849 10.1928L4.96399 10.4634ZM6.56096 10.4634L6.78278 10.2944L7.00378 10.4634L6.91846 10.1928L7.13743 10.0246H6.86646L6.78237 9.75L6.69909 10.0246H6.42771L6.64749 10.1928L6.56096 10.4634ZM8.16565 10.4634L8.38746 10.2944L8.60846 10.4634L8.52274 10.1928L8.74293 10.0246H8.47196L8.38746 9.75L8.30378 10.0246H8.0324L8.25218 10.1928L8.16565 10.4634ZM9.07321 9.75L9.29381 9.58059L9.5144 9.75L9.42909 9.47781L9.64887 9.31044L9.37628 9.31125L9.2934 9.03662L9.20971 9.31125L8.93753 9.31044L9.15853 9.47781L9.07321 9.75ZM1.11518 11.1772L1.33618 11.0094L1.55678 11.1772L1.47106 10.9046L1.69084 10.7372L1.41946 10.738L1.33537 10.4634L1.25249 10.738L0.980713 10.7372L1.20049 10.9046L1.11518 11.1772ZM2.57565 11.1772L2.79624 11.0094L3.01724 11.1772L2.93153 10.9046L3.1509 10.7372L2.88034 10.738L2.79584 10.4634L2.71256 10.738L2.44159 10.7372L2.66056 10.9046L2.57565 11.1772ZM4.18643 11.1772L4.40703 11.0094L4.62762 11.1772L4.54231 10.9046L4.76168 10.7372L4.48909 10.738L4.40662 10.4634L4.32293 10.738L4.05196 10.7372L4.27174 10.9046L4.18643 11.1772ZM5.78543 11.1772L6.00562 11.0094L6.22662 11.1772L6.14253 10.9046L6.36068 10.7372L6.08931 10.738L6.00562 10.4634L5.92193 10.738L5.65096 10.7372L5.87034 10.9046L5.78543 11.1772ZM7.38971 11.1772L7.61071 11.0094L7.83131 11.1772L7.74721 10.9046L7.96537 10.7372L7.69399 10.738L7.61031 10.4634L7.52703 10.738L7.25565 10.7372L7.47503 10.9046L7.38971 11.1772ZM1.89234 11.8909L2.11293 11.7211L2.33353 11.8909L2.24862 11.6179L2.46759 11.4522H2.19621L2.11253 11.1772L2.02924 11.4522H1.75787L1.97765 11.6179L1.89234 11.8909ZM3.35281 11.8909L3.5734 11.7211L3.79399 11.8909L3.70868 11.6179L3.92806 11.4522H3.65628L3.57299 11.1772L3.48931 11.4522H3.21793L3.43812 11.6179L3.35281 11.8909ZM4.96399 11.8909L5.18378 11.7211L5.40478 11.8909L5.31784 11.6179L5.53884 11.4522H5.26787L5.18378 11.1772L5.10009 11.4522H4.82871L5.04849 11.6179L4.96399 11.8909ZM6.56096 11.8909L6.78278 11.7211L7.00378 11.8909L6.91846 11.6179L7.13743 11.4522H6.86646L6.78237 11.1772L6.69909 11.4522H6.42771L6.64749 11.6179L6.56096 11.8909ZM8.16565 11.8909L8.38746 11.7211L8.60846 11.8909L8.52274 11.6179L8.74293 11.4522H8.47196L8.38746 11.1772L8.30378 11.4522H8.0324L8.25218 11.6179L8.16565 11.8909ZM9.07321 11.1772L9.29381 11.0094L9.5144 11.1772L9.42909 10.9046L9.64887 10.7372L9.37628 10.738L9.2934 10.4634L9.20971 10.738L8.93753 10.7372L9.15853 10.9046L9.07321 11.1772Z" fill="white"/>
</svg>
