<svg width="20" height="26" viewBox="0 0 20 26" fill="none" xmlns="http://www.w3.org/2000/svg">
<path d="M10.0016 14.4186C12.6902 14.4186 14.8766 12.2314 14.8766 9.54362C14.8766 6.85588 12.6902 4.66862 10.0016 4.66862C7.31306 4.66862 5.12663 6.85506 5.12663 9.54362C5.12663 12.2322 7.31306 14.4186 10.0016 14.4186ZM10.0016 5.48112C12.2425 5.48112 14.0641 7.30275 14.0641 9.54362C14.0641 11.7845 12.2425 13.6061 10.0016 13.6061C7.76075 13.6061 5.93913 11.7845 5.93913 9.54362C5.93913 7.30275 7.76075 5.48112 10.0016 5.48112ZM10 0C4.62288 0 0.25 4.31925 0.25 9.75081C0.25 15.4383 5.12581 21.2566 8.6805 25.3459C8.6935 25.3622 9.26388 26 9.96912 26C9.97075 26 10.0284 26 10.0317 26C10.7361 26 11.3073 25.3622 11.3203 25.3459C14.8766 21.2566 19.7516 15.4391 19.7516 9.75081C19.7516 4.31925 15.3779 0 10 0V0ZM10.0951 24.2799C10.078 24.2962 10.0284 24.3319 9.98538 24.3596C9.97725 24.3376 9.91712 24.2897 9.88056 24.2515C6.90275 20.8252 1.875 15.0426 1.875 9.75081C1.875 5.27069 5.52069 1.625 10 1.625C14.4817 1.625 18.1266 5.27069 18.1266 9.75163C18.1266 15.0426 13.0989 20.8252 10.0951 24.2799Z" fill="#4F4F4F"/>
</svg>
