<svg width="26" height="26" viewBox="0 0 26 26" fill="none" xmlns="http://www.w3.org/2000/svg">
<path d="M17.8783 0C13.3908 0 9.75325 3.63838 9.75325 8.125C9.75325 9.16906 9.97181 10.1571 10.3326 11.0736L0.4615 20.9438C0.176313 21.2298 0 21.5012 0 21.9375V24.375C0 25.2444 0.754813 26 1.625 26H4.0625C4.498 26 4.77344 25.8253 5.05862 25.5417L6.22456 24.375H8.12825C9.02525 24.375 9.75325 23.647 9.75325 22.75V21.125H11.3783C12.2752 21.125 13.0033 20.397 13.0033 19.5V17.5955L14.9281 15.6691C15.8454 16.0306 16.8326 16.25 17.8783 16.25C22.3641 16.25 26.0033 12.6116 26.0033 8.125C26.0033 3.63838 22.3641 0 17.8783 0ZM17.8783 14.625C16.6757 14.625 15.561 14.2756 14.5949 13.7052L14.3154 13.9839L11.8536 16.4466C11.5489 16.7513 11.3774 17.1641 11.3774 17.5955V19.5H9.75244C8.85544 19.5 8.12744 20.2272 8.12744 21.125V22.75H6.22456C5.79394 22.75 5.38038 22.9214 5.07569 23.2261L3.92356 24.3783L1.62744 24.375L1.625 22.0594L11.1028 12.5986C11.1028 12.5986 11.1028 12.5994 11.1036 12.6003L12.2972 11.4067C11.7268 10.4406 11.3774 9.32669 11.3774 8.12419C11.3774 4.53456 14.2886 1.62419 17.8774 1.62419C21.4662 1.62419 24.3774 4.53456 24.3774 8.12419C24.3774 11.7138 21.4679 14.625 17.8783 14.625ZM22.6038 6.69419C21.6929 5.42506 20.5839 4.31763 19.3091 3.40031C19.1019 3.25 18.8337 3.21263 18.5924 3.29713C17.4639 3.69444 16.6912 4.46631 16.2963 5.59488C16.2662 5.67938 16.2516 5.76713 16.2516 5.85406C16.2516 6.01575 16.302 6.17581 16.3995 6.3115C17.3136 7.58225 18.421 8.6905 19.6926 9.60456C19.9006 9.75406 20.1671 9.79225 20.4084 9.70856C21.5386 9.31369 22.3113 8.54019 22.7078 7.41081C22.7378 7.32631 22.7524 7.23856 22.7524 7.15163C22.7516 6.98994 22.7004 6.82988 22.6038 6.69419ZM20.1663 8.94563C18.9654 8.08194 17.9197 7.03625 17.0625 5.86381C17.3769 4.96763 17.9652 4.37937 18.8354 4.05925C20.0371 4.92456 21.0811 5.96781 21.9359 7.15569C21.6182 8.04537 21.0316 8.63037 20.1663 8.94563Z" fill="#4F4F4F"/>
</svg>
