<svg width="26" height="26" viewBox="0 0 26 26" fill="none" xmlns="http://www.w3.org/2000/svg">
<path d="M23.5625 0H5.6875C4.34119 0 3.25 1.09037 3.25 2.4375V4.0625H2.4375C1.09119 4.0625 0 5.15287 0 6.5V22.75C0 24.5448 1.45519 26 3.25 26H22.75C24.5448 26 26 24.5448 26 22.75V2.4375C26 1.09037 24.908 0 23.5625 0ZM24.375 22.75C24.375 23.6454 23.6454 24.375 22.75 24.375H3.25C2.35381 24.375 1.625 23.6454 1.625 22.75V6.5C1.625 6.0515 1.989 5.6875 2.4375 5.6875H3.25V21.9375C3.25 22.3868 3.61319 22.75 4.0625 22.75C4.51181 22.75 4.875 22.3868 4.875 21.9375V2.4375C4.875 1.989 5.239 1.625 5.6875 1.625H23.5625C24.0102 1.625 24.375 1.989 24.375 2.4375V22.75ZM15.8421 10.5666C15.6187 10.5666 15.4359 10.3846 15.4359 10.1603C15.4359 9.93606 15.6187 9.75406 15.8421 9.75406H22.3421C22.5672 9.75406 22.7484 9.93606 22.7484 10.1603C22.7484 10.3846 22.5672 10.5666 22.3421 10.5666H15.8421ZM15.8421 8.12906C15.6187 8.12906 15.4359 7.94706 15.4359 7.72281C15.4359 7.49856 15.6187 7.31656 15.8421 7.31656H22.3421C22.5672 7.31656 22.7484 7.49856 22.7484 7.72281C22.7484 7.94706 22.5672 8.12906 22.3421 8.12906H15.8421ZM15.8421 5.69156C15.6187 5.69156 15.4359 5.50956 15.4359 5.28531C15.4359 5.06106 15.6187 4.87906 15.8421 4.87906H22.3421C22.5672 4.87906 22.7484 5.06106 22.7484 5.28531C22.7484 5.50956 22.5672 5.69156 22.3421 5.69156H15.8421ZM13.4062 21.9408C13.6305 21.9408 13.8125 22.1236 13.8125 22.347C13.8125 22.5721 13.6297 22.7533 13.4062 22.7533H6.90625C6.682 22.7533 6.5 22.5721 6.5 22.347C6.5 22.1236 6.682 21.9408 6.90625 21.9408H13.4062ZM13.4062 19.5033C13.6305 19.5033 13.8125 19.6861 13.8125 19.9095C13.8125 20.1346 13.6297 20.3158 13.4062 20.3158H6.90625C6.682 20.3158 6.5 20.1346 6.5 19.9095C6.5 19.6861 6.682 19.5033 6.90625 19.5033H13.4062ZM13.4062 17.0658C13.6305 17.0658 13.8125 17.2486 13.8125 17.472C13.8125 17.6971 13.6297 17.8783 13.4062 17.8783H6.90625C6.682 17.8783 6.5 17.6971 6.5 17.472C6.5 17.2486 6.682 17.0658 6.90625 17.0658H13.4062ZM22.3438 21.9408C22.5672 21.9408 22.75 22.1236 22.75 22.347C22.75 22.5721 22.5672 22.7533 22.3438 22.7533H15.8438C15.6187 22.7533 15.4375 22.5721 15.4375 22.347C15.4375 22.1236 15.6187 21.9408 15.8438 21.9408H22.3438ZM22.3438 19.5033C22.5672 19.5033 22.75 19.6861 22.75 19.9095C22.75 20.1346 22.5672 20.3158 22.3438 20.3158H15.8438C15.6187 20.3158 15.4375 20.1346 15.4375 19.9095C15.4375 19.6861 15.6187 19.5033 15.8438 19.5033H22.3438ZM22.3438 17.0658C22.5672 17.0658 22.75 17.2486 22.75 17.472C22.75 17.6971 22.5672 17.8783 22.3438 17.8783H15.8438C15.6187 17.8783 15.4375 17.6971 15.4375 17.472C15.4375 17.2486 15.6187 17.0658 15.8438 17.0658H22.3438ZM22.3438 12.1908C22.5672 12.1908 22.75 12.3727 22.75 12.597C22.75 12.8212 22.5672 13.0033 22.3438 13.0033H6.90625C6.682 13.0033 6.5 12.8212 6.5 12.597C6.5 12.3727 6.682 12.1908 6.90625 12.1908H22.3438ZM22.3438 14.6283C22.5672 14.6283 22.75 14.8111 22.75 15.0345C22.75 15.2596 22.5672 15.4408 22.3438 15.4408H6.90625C6.682 15.4408 6.5 15.2596 6.5 15.0345C6.5 14.8111 6.682 14.6283 6.90625 14.6283H22.3438ZM7.3125 10.5625H13C13.4493 10.5625 13.8125 10.1993 13.8125 9.75V4.06575C13.8125 3.61644 13.4493 3.25325 13 3.25325H7.3125C6.86319 3.25325 6.5 3.61644 6.5 4.06575V9.75C6.5 10.1985 6.86319 10.5625 7.3125 10.5625ZM8.125 4.875H12.1875V8.9375H8.125V4.875Z" fill="#4F4F4F"/>
</svg>
