<svg width="26" height="26" viewBox="0 0 26 26" fill="none" xmlns="http://www.w3.org/2000/svg">
<path d="M25.5239 6.16281L20.6489 1.28781C20.3442 0.983125 19.9298 0.8125 19.5 0.8125H2.4375C1.09362 0.8125 0 1.90531 0 3.25V22.75C0 24.0939 1.09362 25.1875 2.4375 25.1875H23.5625C24.9064 25.1875 26 24.0939 26 22.75V7.3125C26 6.88106 25.8286 6.4675 25.5239 6.16281ZM24.375 22.75C24.375 23.1993 24.0118 23.5625 23.5625 23.5625H2.4375C1.98819 23.5625 1.625 23.1993 1.625 22.75V3.25C1.625 2.80069 1.98819 2.4375 2.4375 2.4375H18.6875V5.6875H18.6859C18.6859 7.03381 19.7779 8.125 21.1234 8.125H24.375V22.75ZM21.9359 7.3125H21.1234C20.228 7.3125 19.4984 6.58369 19.4984 5.6875H19.5V2.4375L24.375 7.3125H21.9359ZM12.5938 6.5C12.3695 6.5 12.1875 6.31881 12.1875 6.09375C12.1875 5.86869 12.3695 5.6875 12.5938 5.6875H16.6562C16.8797 5.6875 17.0625 5.8695 17.0625 6.09375C17.0625 6.318 16.8797 6.5 16.6562 6.5H12.5938ZM12.5938 8.9375C12.3695 8.9375 12.1875 8.7555 12.1875 8.53125C12.1875 8.307 12.3695 8.125 12.5938 8.125H16.6562C16.8797 8.125 17.0625 8.307 17.0625 8.53125C17.0625 8.7555 16.8797 8.9375 16.6562 8.9375H12.5938ZM12.1875 10.9688C12.1875 10.7437 12.3695 10.5625 12.5938 10.5625H22.3438C22.5672 10.5625 22.75 10.7445 22.75 10.9688C22.75 11.193 22.5672 11.375 22.3438 11.375H12.5938C12.3695 11.375 12.1875 11.193 12.1875 10.9688ZM22.3438 15.4375C22.5672 15.4375 22.75 15.6187 22.75 15.8438C22.75 16.0672 22.5672 16.25 22.3438 16.25H3.65625C3.432 16.25 3.25 16.0672 3.25 15.8438C3.25 15.6187 3.432 15.4375 3.65625 15.4375H22.3438ZM22.3438 17.875C22.5672 17.875 22.75 18.0562 22.75 18.2812C22.75 18.5047 22.5672 18.6875 22.3438 18.6875H3.65625C3.432 18.6875 3.25 18.5047 3.25 18.2812C3.25 18.0562 3.432 17.875 3.65625 17.875H22.3438ZM22.3438 20.3125C22.5672 20.3125 22.75 20.4937 22.75 20.7188C22.75 20.9422 22.5672 21.125 22.3438 21.125H3.65625C3.432 21.125 3.25 20.9422 3.25 20.7188C3.25 20.4937 3.432 20.3125 3.65625 20.3125H22.3438ZM22.3438 13C22.5672 13 22.75 13.182 22.75 13.4062C22.75 13.6305 22.5672 13.8125 22.3438 13.8125H3.65625C3.432 13.8125 3.25 13.6313 3.25 13.4062C3.25 13.1812 3.432 13 3.65625 13H22.3438ZM4.0625 11.375H9.75C10.1993 11.375 10.5625 11.0118 10.5625 10.5625V5.6875C10.5625 5.23819 10.1993 4.875 9.75 4.875H4.0625C3.61319 4.875 3.25 5.23819 3.25 5.6875V10.5625C3.25 11.011 3.61319 11.375 4.0625 11.375ZM4.875 6.5H8.9375V9.75H4.875V6.5Z" fill="#4F4F4F"/>
</svg>
