<svg width="20" height="26" viewBox="0 0 20 26" fill="none" xmlns="http://www.w3.org/2000/svg">
<path d="M17.3125 10.5625V7.3125C17.3125 3.27356 14.0389 0 10 0C5.96106 0 2.6875 3.27356 2.6875 7.3125V10.5625C1.34119 10.5625 0.25 11.6537 0.25 13V18.6875C0.25 22.7264 3.52356 26 7.5625 26H12.4375C16.4764 26 19.75 22.7264 19.75 18.6875V13C19.75 11.6529 18.658 10.5625 17.3125 10.5625ZM4.3125 7.3125C4.3125 4.17138 6.85888 1.625 10 1.625C13.1411 1.625 15.6875 4.17138 15.6875 7.3125V10.5625H14.0625V7.31413C14.0625 5.07 12.2441 3.25162 10 3.25162C7.75588 3.25162 5.9375 5.07 5.9375 7.31413V10.5625H4.3125V7.3125ZM13.25 7.3125V10.5625H6.75V7.3125C6.75 5.51769 8.20519 4.0625 10 4.0625C11.7948 4.0625 13.25 5.51769 13.25 7.3125ZM18.125 15.4375V18.6875C18.125 21.8229 15.5729 24.375 12.4375 24.375H7.5625C4.42706 24.375 1.875 21.8229 1.875 18.6875V13C1.875 12.5515 2.239 12.1875 2.6875 12.1875C3.22944 12.1875 3.77056 12.1875 4.3125 12.1875H15.6875C16.2286 12.1875 16.7698 12.1875 17.3125 12.1875C17.7602 12.1875 18.125 12.5515 18.125 13V15.4375ZM10 15.4375C10.897 15.4375 11.625 16.1647 11.625 17.0625C11.625 17.5573 11.3585 18.499 11.0839 19.2416C10.8621 19.8412 10.6354 20.3109 10 20.3109C9.41581 20.3109 9.13794 19.8364 8.91694 19.2335C8.64556 18.4925 8.375 17.5557 8.375 17.0625C8.375 16.1647 9.103 15.4375 10 15.4375Z" fill="#4F4F4F"/>
</svg>
