<svg width="26" height="26" viewBox="0 0 26 26" fill="none" xmlns="http://www.w3.org/2000/svg">
<path d="M25.277 23.023C25.1137 22.9149 22.1505 20.9714 17.7427 20.0176C19.3596 17.9692 20.398 15.2141 20.8392 13.3802C21.4518 10.8387 21.2137 5.86625 18.773 2.76737C17.3462 0.956312 15.3499 0 13.0002 0C10.6504 0 8.6541 0.957125 7.22816 2.76737C4.78742 5.86544 4.55016 10.8379 5.16198 13.3794C5.60316 15.2132 6.64073 17.9684 8.25841 20.0168C3.8506 20.9706 0.887415 22.9141 0.724915 23.0222C0.129352 23.4187 -0.137148 24.1597 0.0708522 24.8438C0.277227 25.5304 0.910165 26 1.62516 26H24.3752C25.091 26 25.7223 25.5304 25.9303 24.8446C26.1391 24.1605 25.8726 23.4195 25.277 23.023ZM16.4671 19.0109L16.2022 19.3472C14.2644 21.5735 11.7375 21.5735 9.80054 19.3472L9.53485 19.0109C7.27204 16.1436 6.14917 12.3508 6.6326 8.73275C7.07542 5.25606 9.06767 1.625 13.0002 1.625C16.9327 1.625 18.9257 5.25688 19.3685 8.73356C19.8504 12.3532 18.7315 16.1419 16.4671 19.0109ZM1.62516 24.375C1.73729 24.3002 4.49004 22.4949 8.60129 21.606L10.6195 21.1697C11.3402 21.6426 12.1308 21.9375 13.0002 21.9375C13.8704 21.9375 14.6601 21.6426 15.3808 21.1697L17.399 21.606C21.4778 22.4884 24.2208 24.2734 24.3752 24.375H1.62516Z" fill="#4F4F4F"/>
</svg>
