<svg width="26" height="26" viewBox="0 0 26 26" fill="none" xmlns="http://www.w3.org/2000/svg">
<g clip-path="url(#clip0_1_86)">
<path d="M16.25 0.00405884C10.8656 0.00405884 6.5 4.36962 6.5 9.75406C6.5 11.4002 6.91194 12.9496 7.63344 14.3106L0.853938 21.0884L0.859625 21.0933C0.329875 21.6141 0 22.3356 0 23.1376C0 24.7211 1.28375 26.0049 2.86731 26.0049C3.66762 26.0049 4.38994 25.675 4.91075 25.1444L4.90912 25.1428L11.6862 18.3666C13.0479 19.0905 14.5998 19.5041 16.25 19.5041C21.6344 19.5041 26 15.1385 26 9.75406C26 4.36962 21.6344 0.00405884 16.25 0.00405884ZM3.89594 24.1288C3.63431 24.4002 3.27194 24.57 2.86731 24.57C2.07512 24.57 1.43325 23.9289 1.43325 23.1367C1.43325 22.7321 1.60387 22.3706 1.87444 22.1081L1.86713 22.1016L8.42075 15.548C8.99356 16.3207 9.67606 17.0032 10.4471 17.5776L3.89594 24.1288ZM16.25 17.8799C11.7634 17.8799 8.125 14.2407 8.125 9.75487C8.125 5.26906 11.7634 1.62987 16.25 1.62987C20.7358 1.62987 24.375 5.26825 24.375 9.75487C24.375 14.2415 20.7358 17.8799 16.25 17.8799ZM16.25 4.06656C16.4734 4.06656 16.6562 4.24856 16.6562 4.47281C16.6562 4.69706 16.4734 4.87906 16.25 4.87906C13.5574 4.87906 11.375 7.06225 11.375 9.75406C11.375 9.97831 11.193 10.1603 10.9688 10.1603C10.7445 10.1603 10.5625 9.97831 10.5625 9.75406C10.5625 6.61293 13.1081 4.06656 16.25 4.06656Z" fill="#4F4F4F"/>
</g>
<defs>
<clipPath id="clip0_1_86">
<rect width="26" height="26" fill="white"/>
</clipPath>
</defs>
</svg>
