<svg xmlns="http://www.w3.org/2000/svg" width="200" height="36" fill="none"><path fill="#16133D" d="M48.132 31c-.42 0-.77-.14-1.05-.42a1.448 1.448 0 0 1-.385-1.015V7.9c0-.397.128-.723.385-.98.28-.28.618-.42 1.015-.42h12.285c.397 0 .735.128 1.015.385.28.257.42.583.42.98 0 .373-.14.688-.42.945-.28.257-.618.385-1.015.385H49.357l.21-.28v8.575l-.175-.385h9.415c.397 0 .735.14 1.015.42.28.257.42.583.42.98 0 .35-.14.665-.42.945-.28.257-.618.385-1.015.385h-9.485l.245-.315v10.045c0 .397-.14.735-.42 1.015-.28.28-.618.42-1.015.42Zm18.957 0c-.396 0-.735-.14-1.015-.42a1.449 1.449 0 0 1-.385-1.015v-15.26c0-.397.129-.723.385-.98.28-.28.619-.42 1.015-.42.42 0 .759.14 1.015.42.257.257.385.583.385.98v4.62l-.42-.735c.14-.723.385-1.423.735-2.1.374-.7.84-1.318 1.4-1.855a5.956 5.956 0 0 1 1.925-1.295 5.715 5.715 0 0 1 2.38-.49c.514 0 .98.128 1.4.385.444.233.665.572.665 1.015 0 .49-.128.852-.385 1.085-.256.233-.548.35-.875.35-.303 0-.595-.058-.875-.175-.28-.14-.63-.21-1.05-.21-.583 0-1.166.163-1.75.49-.56.303-1.085.747-1.575 1.33a7.978 7.978 0 0 0-1.155 1.995 6.44 6.44 0 0 0-.42 2.345v8.505c0 .397-.14.735-.42 1.015a1.27 1.27 0 0 1-.98.42Zm20.227.35c-1.867 0-3.5-.397-4.9-1.19a8.644 8.644 0 0 1-3.29-3.255c-.77-1.4-1.155-3.01-1.155-4.83 0-2.03.397-3.757 1.19-5.18.817-1.447 1.867-2.543 3.15-3.29 1.307-.77 2.683-1.155 4.13-1.155 1.073 0 2.112.198 3.115.595a7.76 7.76 0 0 1 2.66 1.75c.77.747 1.389 1.657 1.855 2.73.467 1.05.712 2.228.735 3.535 0 .373-.14.688-.42.945-.28.257-.606.385-.98.385H79.581l-.63-2.415h13.475l-.56.49v-.77c-.093-.957-.42-1.773-.98-2.45a5.35 5.35 0 0 0-1.995-1.61 5.544 5.544 0 0 0-2.45-.56c-.7 0-1.4.128-2.1.385-.676.233-1.295.63-1.855 1.19-.537.537-.98 1.237-1.33 2.1-.327.863-.49 1.902-.49 3.115 0 1.353.269 2.543.805 3.57a6.477 6.477 0 0 0 2.31 2.45c.98.583 2.123.875 3.43.875.817 0 1.529-.105 2.135-.315a6.6 6.6 0 0 0 1.575-.77 7.997 7.997 0 0 0 1.12-.98c.303-.21.595-.315.875-.315.35 0 .63.117.84.35.234.233.35.513.35.84 0 .397-.186.747-.56 1.05-.653.723-1.54 1.365-2.66 1.925a8.157 8.157 0 0 1-3.57.805Zm20.064 0c-1.867 0-3.5-.397-4.9-1.19a8.645 8.645 0 0 1-3.29-3.255c-.77-1.4-1.155-3.01-1.155-4.83 0-2.03.396-3.757 1.19-5.18.816-1.447 1.866-2.543 3.15-3.29 1.306-.77 2.683-1.155 4.13-1.155 1.073 0 2.111.198 3.115.595 1.003.397 1.89.98 2.66 1.75.77.747 1.388 1.657 1.855 2.73.466 1.05.711 2.228.735 3.535 0 .373-.14.688-.42.945-.28.257-.607.385-.98.385H99.645l-.63-2.415h13.475l-.56.49v-.77c-.094-.957-.42-1.773-.98-2.45a5.356 5.356 0 0 0-1.995-1.61 5.546 5.546 0 0 0-2.45-.56c-.7 0-1.4.128-2.1.385-.677.233-1.295.63-1.855 1.19-.537.537-.98 1.237-1.33 2.1-.327.863-.49 1.902-.49 3.115 0 1.353.268 2.543.805 3.57a6.477 6.477 0 0 0 2.31 2.45c.98.583 2.123.875 3.43.875.816 0 1.528-.105 2.135-.315a6.627 6.627 0 0 0 1.575-.77 8.06 8.06 0 0 0 1.12-.98c.303-.21.595-.315.875-.315.35 0 .63.117.84.35.233.233.35.513.35.84 0 .397-.187.747-.56 1.05-.654.723-1.54 1.365-2.66 1.925a8.157 8.157 0 0 1-3.57.805Zm20.448-18.725c1.54 0 2.753.338 3.64 1.015.91.653 1.552 1.54 1.925 2.66.397 1.097.595 2.322.595 3.675v9.59c0 .397-.14.735-.42 1.015-.257.28-.583.42-.98.42s-.735-.14-1.015-.42a1.447 1.447 0 0 1-.385-1.015v-9.59c0-.887-.128-1.68-.385-2.38a3.418 3.418 0 0 0-1.295-1.715c-.583-.443-1.388-.665-2.415-.665-.957 0-1.832.222-2.625.665a4.976 4.976 0 0 0-1.89 1.715c-.467.7-.7 1.493-.7 2.38v9.59c0 .397-.14.735-.42 1.015-.257.28-.583.42-.98.42s-.735-.14-1.015-.42a1.447 1.447 0 0 1-.385-1.015V6.5c0-.397.128-.723.385-.98.28-.28.618-.42 1.015-.42.42 0 .758.14 1.015.42.257.257.385.583.385.98v10.465l-.7.77c.117-.607.373-1.213.77-1.82.397-.63.898-1.19 1.505-1.68a7.27 7.27 0 0 1 2.03-1.155 6.172 6.172 0 0 1 2.345-.455Zm26.258.105c.396 0 .723.14.98.42.28.257.42.583.42.98v15.435c0 .397-.14.735-.42 1.015-.257.28-.584.42-.98.42-.42 0-.759-.14-1.015-.42a1.447 1.447 0 0 1-.385-1.015V26.24l.665-.07c0 .513-.175 1.073-.525 1.68-.35.607-.829 1.178-1.435 1.715-.607.513-1.33.945-2.17 1.295a7.1 7.1 0 0 1-2.66.49c-1.587 0-3.01-.408-4.27-1.225-1.26-.84-2.264-1.972-3.01-3.395-.724-1.423-1.085-3.045-1.085-4.865 0-1.843.361-3.465 1.085-4.865.746-1.423 1.75-2.532 3.01-3.325 1.26-.817 2.66-1.225 4.2-1.225a7.85 7.85 0 0 1 2.8.49c.863.327 1.61.77 2.24 1.33.653.56 1.155 1.178 1.505 1.855.373.677.56 1.353.56 2.03l-.91-.21V14.13c0-.397.128-.723.385-.98.256-.28.595-.42 1.015-.42Zm-7.21 16.03c1.166 0 2.193-.303 3.08-.91.91-.607 1.61-1.423 2.1-2.45.513-1.05.77-2.228.77-3.535 0-1.283-.257-2.438-.77-3.465-.49-1.05-1.19-1.867-2.1-2.45-.887-.607-1.914-.91-3.08-.91-1.144 0-2.17.292-3.08.875-.887.583-1.587 1.388-2.1 2.415-.514 1.027-.77 2.205-.77 3.535 0 1.307.245 2.485.735 3.535.513 1.027 1.213 1.843 2.1 2.45.91.607 1.948.91 3.115.91Zm22.794-16.31c1.586 0 2.835.327 3.745.98.91.653 1.551 1.528 1.925 2.625.396 1.097.595 2.322.595 3.675v9.835c0 .397-.14.735-.42 1.015-.257.28-.584.42-.98.42-.397 0-.735-.14-1.015-.42a1.447 1.447 0 0 1-.385-1.015V19.8c0-.887-.14-1.68-.42-2.38a3.357 3.357 0 0 0-1.33-1.715c-.607-.443-1.447-.665-2.52-.665-.98 0-1.879.222-2.695.665a5.18 5.18 0 0 0-1.96 1.715 4.05 4.05 0 0 0-.735 2.38v9.765c0 .397-.14.735-.42 1.015-.257.28-.584.42-.98.42-.397 0-.735-.14-1.015-.42a1.447 1.447 0 0 1-.385-1.015v-15.26c0-.397.128-.723.385-.98.28-.28.618-.42 1.015-.42.42 0 .758.14 1.015.42.256.257.385.583.385.98v2.485l-.7.77c.116-.607.385-1.213.805-1.82.42-.63.945-1.19 1.575-1.68a7.66 7.66 0 0 1 2.1-1.155 6.53 6.53 0 0 1 2.415-.455Zm26.354-7.35c.397 0 .724.14.98.42.28.257.42.583.42.98v23.065c0 .397-.14.735-.42 1.015a1.27 1.27 0 0 1-.98.42c-.42 0-.758-.14-1.015-.42a1.452 1.452 0 0 1-.385-1.015V26.24l.665-.245c0 .56-.175 1.155-.525 1.785-.35.607-.828 1.178-1.435 1.715-.606.537-1.33.98-2.17 1.33a6.678 6.678 0 0 1-2.66.525c-1.563 0-2.986-.408-4.27-1.225-1.26-.817-2.263-1.937-3.01-3.36-.723-1.423-1.085-3.045-1.085-4.865 0-1.843.362-3.477 1.085-4.9.747-1.423 1.75-2.532 3.01-3.325 1.26-.817 2.66-1.225 4.2-1.225.98 0 1.902.163 2.765.49.864.327 1.61.77 2.24 1.33a6.713 6.713 0 0 1 1.54 1.855c.374.677.56 1.353.56 2.03l-.91-.21V6.5c0-.397.129-.723.385-.98.257-.28.595-.42 1.015-.42Zm-7.21 23.66c1.167 0 2.194-.292 3.08-.875.91-.607 1.61-1.423 2.1-2.45.514-1.05.77-2.228.77-3.535 0-1.33-.256-2.508-.77-3.535-.49-1.027-1.19-1.832-2.1-2.415-.886-.607-1.913-.91-3.08-.91-1.143 0-2.17.303-3.08.91-.886.583-1.586 1.388-2.1 2.415-.513 1.027-.77 2.205-.77 3.535 0 1.283.257 2.45.77 3.5.514 1.027 1.214 1.843 2.1 2.45.91.607 1.937.91 3.08.91Z"/><path fill="#3DB370" stroke="#3DB370" d="M24.101 18c0-.405.28-.76.677-.852a6.497 6.497 0 0 0 5.038-6.36c0-3.606-2.926-6.538-6.518-6.538-3.066 0-5.75 2.183-6.379 5.189L24.101 18Zm0 0c0 .405.279.76.676.852L24.1 18Zm-7.182 8.561c.629 3.006 3.313 5.189 6.378 5.189 3.593 0 6.519-2.932 6.519-6.537a6.497 6.497 0 0 0-5.038-6.36l-7.859 7.708Zm0 0a.874.874 0 0 0-1.71 0c-.629 3.006-3.313 5.189-6.379 5.189-3.592 0-6.518-2.932-6.518-6.537a6.497 6.497 0 0 1 5.038-6.36.874.874 0 0 0 0-1.705l9.57 9.413ZM15.21 9.44C14.58 6.433 11.896 4.25 8.83 4.25c-3.592 0-6.518 2.932-6.518 6.537a6.497 6.497 0 0 0 5.038 6.36L15.21 9.44Zm0 0a.874.874 0 0 0 1.71 0h-1.71ZM8.83 33.5c3.055 0 5.806-1.705 7.234-4.28 1.428 2.575 4.178 4.28 7.233 4.28 4.56 0 8.267-3.718 8.267-8.287A8.246 8.246 0 0 0 27.369 18a8.246 8.246 0 0 0 4.195-7.213c0-4.569-3.707-8.287-8.267-8.287-3.055 0-5.805 1.705-7.233 4.28C14.636 4.205 11.885 2.5 8.83 2.5 4.27 2.5.564 6.218.564 10.787A8.246 8.246 0 0 0 4.758 18a8.246 8.246 0 0 0-4.194 7.213c0 4.569 3.706 8.287 8.266 8.287Z"/></svg>